<svg xmlns="http://www.w3.org/2000/svg" xmlns:xlink="http://www.w3.org/1999/xlink" width="13.86138223428054" height="17.023134976190534" viewBox="537.0692913649626 426.4883975982666 13.86138223428054 17.023134976190534"><path d="M 17.01259613037109 10.97309494018555 C 16.9910831451416 8.817243576049805 18.77074813842773 7.783321380615234 18.85025978088379 7.731952667236328 C 17.85028648376465 6.268696308135986 16.29263687133789 6.068242073059082 15.73752403259277 6.045068264007568 C 14.4118824005127 5.910844802856445 13.15087509155273 6.825538635253906 12.47809505462646 6.825538635253906 C 11.80701160430908 6.825538635253906 10.76883316040039 6.064917087554932 9.669412612915039 6.08489990234375 C 8.224510192871094 6.106378078460693 6.892218589782715 6.925050735473633 6.148221969604492 8.21910572052002 C 4.646995067596436 10.82407569885254 5.763772010803223 14.68323612213135 7.226962089538574 16.79593276977539 C 7.941933155059814 17.83002090454102 8.794485092163086 18.9915828704834 9.913854598999023 18.95008850097656 C 10.99179744720459 18.90706634521484 11.39942169189453 18.25257110595703 12.7026538848877 18.25257110595703 C 14.00588703155518 18.25257110595703 14.37218284606934 18.95008850097656 15.51296520233154 18.92867469787598 C 16.67289733886719 18.90712928771973 17.40781784057617 17.87473678588867 18.11783599853516 16.83742523193359 C 18.93890190124512 15.63769435882568 19.27696990966797 14.47616481781006 19.29688453674316 14.41651630401611 C 19.27115249633789 14.4047794342041 17.03500556945801 13.54813766479492 17.01259613037109 10.9730920791626 Z M 14.86914539337158 4.646446228027344 C 15.46325969696045 3.925656795501709 15.86426639556885 2.92564845085144 15.75487899780273 1.928033828735352 C 14.89910125732422 1.962877988815308 13.86175537109375 2.498075723648071 13.24779224395752 3.217235803604126 C 12.69683456420898 3.855203628540039 12.21463489532471 4.873432159423828 12.3438720703125 5.85109806060791 C 13.29919528961182 5.92564058303833 14.27440071105957 5.365606784820557 14.86914539337158 4.646446228027344 Z" transform="matrix(1,0,0,1,531.6337890625,424.56036376953125)" fill="#000000" fill-rule="evenodd"/></svg>