<svg xmlns="http://www.w3.org/2000/svg" width="12.602" height="12.602" viewBox="0 0 12.602 12.602">
  <path id="Path_672" data-name="Path 672" d="M3.936,2.939a.582.582,0,0,1-.163.721l-.2.157a14.3,14.3,0,0,1-1.186-2.7l.671.022Zm6.079,6.08,1.8.875.021.664a15.133,15.133,0,0,1-2.7-1.179l.157-.2a.581.581,0,0,1,.721-.163Zm2.584.835.031.951a1.234,1.234,0,0,1-.239.778A3.4,3.4,0,0,1,9.5,12.926a.355.355,0,0,1-.049,0A10.814,10.814,0,0,1,3.083,9.872,10.814,10.814,0,0,1,.032,3.5a.364.364,0,0,1,0-.05A3.394,3.394,0,0,1,1.372.564,1.232,1.232,0,0,1,2.151.325l.95.03a.752.752,0,0,1,.661.429l.882,1.81a1.371,1.371,0,0,1-.38,1.682l-.792.632A8.626,8.626,0,0,0,8.047,9.482l.632-.792a1.372,1.372,0,0,1,1.682-.38l1.809.882a.753.753,0,0,1,.429.661Z" transform="translate(-0.029 -0.324)" fill="#fff" fill-rule="evenodd"/>
</svg>
