<svg xmlns="http://www.w3.org/2000/svg" width="16" height="16" viewBox="0 0 16 16">
  <g id="Group_23781" data-name="Group 23781" transform="translate(0 0)">
    <path id="Path_23286" data-name="Path 23286" d="M4.609,105.319l7.264-3.886L9.611,98.8.3,105.521a.719.719,0,0,0-.164,1l.615.862,2.561-1.37v-.143a.552.552,0,0,1,.552-.552Zm-3.781,1.1a.276.276,0,1,1,.276-.276A.276.276,0,0,1,.828,106.423Z" transform="translate(0 -95.388)" fill="#c2a466"/>
    <path id="Path_23287" data-name="Path 23287" d="M204.669,261.689l.463-.242-.212-.318-.46.246Z" transform="translate(-197.41 -252.126)" fill="#c2a466"/>
    <path id="Path_23288" data-name="Path 23288" d="M168.348,276.269l.212-.111-.206-.308-.783.419Z" transform="translate(-161.793 -266.338)" fill="#c2a466"/>
    <path id="Path_23289" data-name="Path 23289" d="M257.755,233.319l.463-.242-.223-.335-.46.246Z" transform="translate(-248.654 -224.716)" fill="#c2a466"/>
    <path id="Path_23290" data-name="Path 23290" d="M82.812,326.868l.237-.135v-.451l-.463.247Z" transform="translate(-79.738 -315.031)" fill="#c2a466"/>
    <path id="Path_23291" data-name="Path 23291" d="M285.281,219.623l.395-.206-.229-.344-.392.21Z" transform="translate(-275.226 -211.519)" fill="#c2a466"/>
    <path id="Path_23292" data-name="Path 23292" d="M372.994,25.238l.555-.4L371.4,21.8l-.566.5Z" transform="translate(-358.045 -21.043)" fill="#c2a466"/>
    <path id="Path_23293" data-name="Path 23293" d="M114.759,50.207h.552v.625l.552-.4V49.379a.276.276,0,1,0-.552,0v.276h-.552v-.276a.828.828,0,1,1,1.655,0v.656l1.109-.8A2.252,2.252,0,0,1,117.984,48H112v5.223l2.759-1.992Zm-.552.276a.828.828,0,1,1-1.655,0V48.552h.552v1.931a.276.276,0,1,0,.552,0V49.1h.552Z" transform="translate(-108.138 -46.345)" fill="#12161f"/>
    <path id="Path_23294" data-name="Path 23294" d="M31.11,355.939l.044.061a.429.429,0,0,0,.544.134l-.25-.376Z" transform="translate(-30.037 -343.491)" fill="#c2a466"/>
    <path id="Path_23295" data-name="Path 23295" d="M55.066,341.285l.243.364.452-.258-.234-.352Z" transform="translate(-53.167 -329.279)" fill="#c2a466"/>
    <path id="Path_23296" data-name="Path 23296" d="M232.195,247.994l.395-.206-.217-.326-.392.21Z" transform="translate(-223.981 -238.929)" fill="#c2a466"/>
    <path id="Path_23297" data-name="Path 23297" d="M114.693,240.52H112v5.517h7.172v-7.784l-4.232,2.209A.554.554,0,0,1,114.693,240.52Zm-1.038,1.1h.552v1.931a.276.276,0,0,0,.552,0v-.828h.552v.828a.828.828,0,0,1-1.655,0Zm2.759,1.931a1.931,1.931,0,0,1-3.862,0v-2.483h.552v2.483a1.379,1.379,0,0,0,2.759,0v-.828h.552Zm2.207,1.931h-.552v-.552h.552Zm0-1.1h-.552v-.828a.276.276,0,1,0-.552,0v1.931h-.552v-1.931a.828.828,0,1,1,1.655,0Zm-2.966-3.788a1.169,1.169,0,0,1,2.069,0,1.752,1.752,0,0,1,.8.976l.2.605h-4.076l.2-.605A1.752,1.752,0,0,1,115.655,240.594Z" transform="translate(-108.138 -230.037)" fill="#12161f"/>
    <path id="Path_23298" data-name="Path 23298" d="M310.609,204.6l.232.348.463-.242-.235-.353Z" transform="translate(-299.898 -197.306)" fill="#c2a466"/>
    <path id="Path_23299" data-name="Path 23299" d="M338.129,188.073l.238.357.632-.33-.29-.338Z" transform="translate(-326.469 -181.287)" fill="#c2a466"/>
    <path id="Path_23300" data-name="Path 23300" d="M213.276,304.523l-.082-.041-.07-.14a.617.617,0,0,0-1.1,0l-.07.14-.082.041a1.2,1.2,0,0,0-.561.581h2.531A1.2,1.2,0,0,0,213.276,304.523Z" transform="translate(-204.02 -293.517)" fill="#12161f"/>
    <path id="Path_23301" data-name="Path 23301" d="M294.019,4.321l-.051-.072-1.144.817a.932.932,0,0,1-.545.175h-.043a.938.938,0,0,1-.7-.315l-1.842-2.073a.937.937,0,0,1,.083-1.328L291.179.3l-.028-.039a.612.612,0,0,0-.932-.08l-1.638,1.638a1.709,1.709,0,0,0-.5,1.119l3.156,3.682a2.449,2.449,0,0,0,1.239-.41l1.362-.908a.695.695,0,0,0,.182-.979Zm-4.838-.735a.276.276,0,1,1,.276-.276A.276.276,0,0,1,289.181,3.586Zm1.1,1.1a.276.276,0,1,1,.276-.276A.276.276,0,0,1,290.284,4.69Zm.828,1.1a.276.276,0,1,1,.276-.276A.276.276,0,0,1,291.112,5.793Z" transform="translate(-278.146)" fill="#c2a466"/>
  </g>
</svg>
