<svg xmlns="http://www.w3.org/2000/svg" xmlns:xlink="http://www.w3.org/1999/xlink" width="16" height="16" viewBox="0 0 16 16">
  <defs>
    <clipPath id="clip-path">
      <path id="path63" d="M0-682.665H16v16H0Z" transform="translate(0 682.665)"/>
    </clipPath>
  </defs>
  <g id="g57" transform="translate(0 682.665)">
    <g id="g59" transform="translate(0 -682.665)">
      <g id="g61" transform="translate(0 0)" clip-path="url(#clip-path)">
        <g id="g67" transform="translate(0.625 1.125)">
          <path id="path69" d="M-255.208-468.749l1.25,2.5,1.25-2.5h4.875a1.25,1.25,0,0,0,1.25-1.25v-8.75a1.25,1.25,0,0,0-1.25-1.25h-12.25a1.25,1.25,0,0,0-1.25,1.25V-470a1.25,1.25,0,0,0,1.25,1.25Z" transform="translate(261.333 479.999)" fill="none" stroke="#fff" stroke-linecap="round" stroke-linejoin="round" stroke-miterlimit="10" stroke-width="1"/>
        </g>
        <g id="g71" transform="translate(4.25 6.125)">
          <path id="path73" d="M0,0V3.75" fill="none" stroke="#fff" stroke-linecap="round" stroke-linejoin="round" stroke-miterlimit="10" stroke-width="1"/>
        </g>
        <g id="g75" transform="translate(3.625 3)">
          <path id="path77" d="M-52.083-26.042a.625.625,0,0,1-.625.625.625.625,0,0,1-.625-.625.625.625,0,0,1,.625-.625.625.625,0,0,1,.625.625" transform="translate(53.333 26.667)" fill="#fff"/>
        </g>
        <g id="g79" transform="translate(8 4.25)">
          <path id="path81" d="M0,0H3.75" fill="none" stroke="#fff" stroke-linecap="round" stroke-linejoin="round" stroke-miterlimit="10" stroke-width="1"/>
        </g>
        <g id="g83" transform="translate(8 6.75)">
          <path id="path85" d="M0,0H3.75" fill="none" stroke="#fff" stroke-linecap="round" stroke-linejoin="round" stroke-miterlimit="10" stroke-width="1"/>
        </g>
        <g id="g87" transform="translate(8 9.25)">
          <path id="path89" d="M0,0H3.75" fill="none" stroke="#fff" stroke-linecap="round" stroke-linejoin="round" stroke-miterlimit="10" stroke-width="1"/>
        </g>
      </g>
    </g>
  </g>
</svg>
