<?xml version="1.0" encoding="UTF-8"?>
<svg version="1.1" xmlns="http://www.w3.org/2000/svg" width="512" height="512">
<path d="M0 0 C1.27017139 -0.00297112 2.54034278 -0.00594224 3.84900421 -0.0090034 C7.36345528 -0.01704065 10.8778859 -0.01886114 14.39234507 -0.01960087 C18.18735015 -0.02145717 21.98234476 -0.02900742 25.77734375 -0.03573608 C34.07099172 -0.04929699 42.36463484 -0.05534073 50.65829206 -0.05974674 C55.84135811 -0.06251316 61.02442231 -0.06675126 66.20748711 -0.07125092 C80.57048837 -0.08344103 94.93348816 -0.09374061 109.29649448 -0.09712601 C110.67443498 -0.09745536 110.67443498 -0.09745536 112.08021265 -0.09779136 C113.00098329 -0.09800964 113.92175393 -0.09822791 114.87042671 -0.09845281 C116.73612249 -0.09889627 118.60181826 -0.09934283 120.46751404 -0.09979248 C121.39295499 -0.10001391 122.31839594 -0.10023534 123.27188056 -0.10046348 C138.25787497 -0.10440913 153.24382069 -0.1218572 168.2297963 -0.145152 C183.63215646 -0.16889989 199.03449223 -0.18132943 214.43687099 -0.18249393 C223.07804355 -0.18340879 231.71915267 -0.18911353 240.36030769 -0.20731354 C247.72031095 -0.22276103 255.08023115 -0.22780771 262.44024754 -0.21957543 C266.19086171 -0.21568522 269.94130886 -0.21651815 273.69190216 -0.23063278 C277.77022483 -0.24583945 281.84817591 -0.23745709 285.92651367 -0.22705078 C287.67914555 -0.23913539 287.67914555 -0.23913539 289.46718413 -0.25146413 C306.11029406 -0.15269094 320.20856224 4.09711924 333.40769958 14.14044189 C334.92363708 15.22325439 334.92363708 15.22325439 336.47019958 16.32794189 C349.42905761 27.5981102 356.29416473 44.65613678 357.68123126 61.4527626 C357.7895085 64.83030417 357.80808439 68.19532505 357.78865051 71.57452393 C357.79333048 72.85067629 357.79801046 74.12682865 357.80283225 75.4416523 C357.81521925 78.94036676 357.80922891 82.43883202 357.79987359 85.93754673 C357.79303228 89.72766775 357.80358928 93.51774854 357.81181335 97.30786133 C357.82509913 104.71553354 357.82229607 112.12311416 357.81357543 119.53078985 C357.80677889 125.5553242 357.80589065 131.57983303 357.80914688 137.60437012 C357.80960658 138.46434384 357.81006628 139.32431757 357.81053991 140.21035111 C357.81149916 141.9577934 357.8124718 143.70523569 357.81345768 145.45267797 C357.82199647 161.80870612 357.81220122 178.1646837 357.79605658 194.52070355 C357.78265478 208.53134477 357.7849833 222.5419114 357.79881287 236.55255127 C357.81489544 252.85314853 357.82117264 269.15370156 357.81197608 285.45430565 C357.81102051 287.19504165 357.81007739 288.93577766 357.80914688 290.67651367 C357.80868405 291.53281628 357.80822123 292.38911888 357.80774438 293.27137005 C357.80516251 299.28325985 357.80950809 305.29512141 357.81658554 311.30700684 C357.82503056 318.64123435 357.82265765 325.97536563 357.80674331 333.30958223 C357.79890076 337.04605938 357.79569969 340.78237655 357.80569077 344.51885223 C357.81638906 348.58149189 357.80354919 352.6437334 357.78865051 356.70635986 C357.79534268 357.87000628 357.80203484 359.03365269 357.8089298 360.23256111 C357.73008115 371.38028857 356.04377162 382.4791724 350.72019958 392.39044189 C350.36989685 393.0595459 350.01959412 393.7286499 349.65867615 394.41802979 C341.30145337 409.9185457 328.02030481 420.5691416 311.22019958 425.89044189 C303.11563801 428.2652027 295.19949943 428.28701931 286.81539917 428.28088379 C285.54522778 428.28385491 284.27505639 428.28682603 282.96639496 428.28988719 C279.45194389 428.29792444 275.93751327 428.29974493 272.4230541 428.30048466 C268.62804902 428.30234096 264.83305441 428.30989121 261.03805542 428.31661987 C252.74440745 428.33018078 244.45076433 428.33622452 236.15710711 428.34063053 C230.97404106 428.34339695 225.79097686 428.34763505 220.60791206 428.3521347 C206.2449108 428.36432482 191.88191101 428.3746244 177.51890469 428.3780098 C176.14096419 428.37833915 176.14096419 428.37833915 174.73518652 428.37867515 C173.35403056 428.37900256 173.35403056 428.37900256 171.94497246 428.3793366 C170.07927668 428.37978005 168.21358091 428.38022662 166.34788513 428.38067627 C164.9597237 428.38100841 164.9597237 428.38100841 163.54351861 428.38134727 C148.5575242 428.38529292 133.57157848 428.40274099 118.58560287 428.42603579 C103.18324271 428.44978368 87.78090694 428.46221322 72.37852818 428.46337771 C63.73735562 428.46429258 55.0962465 428.46999732 46.45509148 428.48819733 C39.09508822 428.50364482 31.73516802 428.5086915 24.37515163 428.50045922 C20.62453746 428.49656901 16.87409031 428.49740194 13.12349701 428.51151657 C9.04517433 428.52672324 4.96722326 428.51834088 0.8888855 428.50793457 C-0.86374638 428.52001918 -0.86374638 428.52001918 -2.65178496 428.53234792 C-13.81422556 428.46610129 -24.91733682 426.78194068 -34.84230042 421.45294189 C-35.51067932 421.10408936 -36.17905823 420.75523682 -36.86769104 420.39581299 C-52.61284337 411.92613805 -63.02112358 398.88487955 -68.40480042 381.82794189 C-70.72475989 373.77135536 -70.73883382 365.8721063 -70.73274231 357.54814148 C-70.73571343 356.27797009 -70.73868455 355.0077987 -70.74174571 353.69913727 C-70.74978296 350.1846862 -70.75160345 346.67025558 -70.75234318 343.15579641 C-70.75419948 339.36079133 -70.76174973 335.56579672 -70.76847839 331.77079773 C-70.7820393 323.47714976 -70.78808304 315.18350664 -70.79248905 306.88984942 C-70.79525547 301.70678337 -70.79949357 296.52371917 -70.80399323 291.34065437 C-70.81618334 276.97765311 -70.82648292 262.61465332 -70.82986832 248.251647 C-70.83008788 247.33302 -70.83030745 246.41439301 -70.83053367 245.46792883 C-70.83075195 244.54715819 -70.83097022 243.62638755 -70.83119512 242.67771477 C-70.83163858 240.81201899 -70.83208514 238.94632322 -70.83253479 237.08062744 C-70.83275622 236.15518649 -70.83297765 235.22974554 -70.83320579 234.27626092 C-70.83715144 219.29026651 -70.85459951 204.30432079 -70.87789431 189.31834518 C-70.9016422 173.91598502 -70.91407174 158.51364925 -70.91523623 143.11127049 C-70.9161511 134.47009793 -70.92185584 125.82898881 -70.94005585 117.18783379 C-70.95550334 109.82783053 -70.96055002 102.46791033 -70.95231774 95.10789394 C-70.94842753 91.35727977 -70.94926046 87.60683262 -70.96337509 83.85623932 C-70.97858176 79.77791664 -70.9701994 75.69996557 -70.95979309 71.62162781 C-70.9678495 70.45320656 -70.9759059 69.28478531 -70.98420644 68.08095735 C-70.88552865 51.45392309 -66.64875614 37.31945008 -56.59230042 24.14044189 C-55.82917542 23.10919189 -55.06605042 22.07794189 -54.27980042 21.01544189 C-39.36005111 5.05477985 -21.11469589 -0.01545181 0 0 Z M228.84519958 120.39044189 C228.18898621 121.06212402 227.53277283 121.73380615 226.85667419 122.42584229 C223.09044238 126.3048496 219.43187575 130.25503635 215.94285583 134.38653564 C213.55792344 137.11130573 210.95159546 139.60489759 208.37254333 142.14434814 C206.48539215 144.06151366 204.72084583 146.03619511 202.97019958 148.07794189 C200.40104688 151.06845905 197.71452702 153.87160874 194.90769958 156.64044189 C192.12148818 159.3890018 189.45461566 162.1690398 186.90769958 165.14044189 C183.65725308 168.93262949 180.15320389 172.4117972 176.59910583 175.91778564 C173.98668891 178.56745629 171.57467338 181.35216992 169.15379333 184.17559814 C166.68166541 186.95743337 164.02339411 189.53420141 161.37254333 192.14434814 C159.48539215 194.06151366 157.72084583 196.03619511 155.97019958 198.07794189 C152.69639305 201.88868253 149.17405987 205.39122354 145.59910583 208.91778564 C142.98668891 211.56745629 140.57467338 214.35216992 138.15379333 217.17559814 C135.68166541 219.95743337 133.02339411 222.53420141 130.37254333 225.14434814 C128.48539215 227.06151366 126.72084583 229.03619511 124.97019958 231.07794189 C122.40104688 234.06845905 119.71452702 236.87160874 116.90769958 239.64044189 C113.50312384 242.99900986 110.3373781 246.47137535 107.22801208 250.10137939 C104.4528887 253.209994 101.4633527 256.09409686 98.49754333 259.01934814 C95.95069994 261.60427518 93.66444158 264.30131487 91.40769958 267.14044189 C88.09309266 266.03557292 87.43793852 265.26421104 85.28269958 262.64044189 C82.61555038 259.48937954 79.85205037 256.53454778 76.90769958 253.64044189 C73.50051169 250.27929707 70.33311784 246.80342986 67.22019958 243.17169189 C64.4814333 240.10238485 61.53508283 237.25404814 58.59519958 234.37872314 C56.54773396 232.28372707 54.73805819 230.11165321 52.90769958 227.82794189 C48.34217502 222.54542964 43.29005632 220.55220714 36.47019958 219.57794189 C30.31487703 219.97109623 24.75153563 222.73505056 20.47410583 227.12481689 C16.54252292 232.4423535 14.98893971 237.53692075 15.40769958 244.14044189 C16.96553335 254.53257348 27.22308512 262.02239649 34.29051208 268.99200439 C36.85538098 271.59473113 39.21822388 274.33605357 41.59519958 277.10919189 C43.61862838 279.37682762 45.74423305 281.5062114 47.90769958 283.64044189 C50.67330366 286.36873597 53.3205699 289.12561023 55.84519958 292.07794189 C59.35088879 296.16926828 63.1559058 299.91315612 67.00144958 303.68341064 C69.1285732 305.85542485 71.01336461 308.08055541 72.90769958 310.45294189 C77.06741441 315.2782111 82.25754544 318.26875524 88.50926208 319.58184814 C95.29766628 320.00105239 100.95412787 317.27038299 105.95457458 312.92950439 C110.41502442 308.53663714 114.56357644 303.89227532 118.63035583 299.13653564 C121.35625117 296.0751455 124.29911317 293.24079026 127.21629333 290.36309814 C129.82871026 287.7134275 132.24072579 284.92871387 134.66160583 282.10528564 C137.13373376 279.32345041 139.79200506 276.74668238 142.44285583 274.13653564 C144.33000702 272.21937012 146.09455334 270.24468868 147.84519958 268.20294189 C151.11900611 264.39220126 154.6413393 260.88966025 158.21629333 257.36309814 C160.82871026 254.7134275 163.24072579 251.92871387 165.66160583 249.10528564 C168.13373376 246.32345041 170.79200506 243.74668238 173.44285583 241.13653564 C175.33000702 239.21937012 177.09455334 237.24468868 178.84519958 235.20294189 C182.11900611 231.39220126 185.6413393 227.88966025 189.21629333 224.36309814 C191.82871026 221.7134275 194.24072579 218.92871387 196.66160583 216.10528564 C199.13373376 213.32345041 201.79200506 210.74668238 204.44285583 208.13653564 C206.33000702 206.21937012 208.09455334 204.24468868 209.84519958 202.20294189 C213.11900611 198.39220126 216.6413393 194.88966025 220.21629333 191.36309814 C222.82871026 188.7134275 225.24072579 185.92871387 227.66160583 183.10528564 C230.13373376 180.32345041 232.79200506 177.74668238 235.44285583 175.13653564 C237.33000702 173.21937012 239.09455334 171.24468868 240.84519958 169.20294189 C243.41435229 166.21242474 246.10087215 163.40927505 248.90769958 160.64044189 C252.33538554 157.2534234 255.5783813 153.77973159 258.70848083 150.11700439 C259.89302056 148.739126 261.10078066 147.38101701 262.32566833 146.03887939 C262.95086365 145.35052002 263.57605896 144.66216064 264.22019958 143.95294189 C264.7835199 143.34063721 265.34684021 142.72833252 265.92723083 142.09747314 C270.22891301 136.41108061 270.26174349 129.99058569 269.40769958 123.14044189 C267.13342444 116.94710334 262.90738271 113.50135936 257.40769958 110.14044189 C254.60598341 109.2065365 252.63880751 108.91499613 249.72019958 108.82794189 C248.9119574 108.79055908 248.10371521 108.75317627 247.27098083 108.71466064 C239.36910117 109.88970141 234.17787297 114.80307366 228.84519958 120.39044189 Z " fill="#000000" transform="translate(112.59230041503906,41.85955810546875)"/>
</svg>
