<svg id="Group_23825" data-name="Group 23825" xmlns="http://www.w3.org/2000/svg" width="16" height="16" viewBox="0 0 16 16">
  <path id="Path_23424" data-name="Path 23424" d="M104.32,144h-.52v.96a2.656,2.656,0,0,1-2.34,2.88h-2.6a2.656,2.656,0,0,1-2.34-2.88V144H96v4.48h8.32Zm0,0" transform="translate(-92.16 -138.24)" fill="#c2a466"/>
  <path id="Path_23425" data-name="Path 23425" d="M130.24,147.2h3.2a2.243,2.243,0,0,0,2.24-2.24V144H128v.96A2.243,2.243,0,0,0,130.24,147.2Zm0,0" transform="translate(-123.84 -138.24)" fill="#c2a466"/>
  <path id="Path_23426" data-name="Path 23426" d="M96,112h.64v.64H96Zm0,0" transform="translate(-92.587 -107.52)" fill="#12161f"/>
  <path id="Path_23427" data-name="Path 23427" d="M64.64,88.342V80H64v8.342A2.335,2.335,0,0,1,64.64,88.342Zm0,0" transform="translate(-61.44 -76.8)" fill="#12161f"/>
  <path id="Path_23428" data-name="Path 23428" d="M96,272h8.32v.64H96Zm0,0" transform="translate(-92.16 -261.12)" fill="#12161f"/>
  <path id="Path_23429" data-name="Path 23429" d="M368.64,88.342V80H368v8.342A2.335,2.335,0,0,1,368.64,88.342Zm0,0" transform="translate(-355.2 -76.8)" fill="#12161f"/>
  <path id="Path_23430" data-name="Path 23430" d="M400,240h.64v.64H400Zm0,0" transform="translate(-385.92 -230.4)" fill="#12161f"/>
  <path id="Path_23431" data-name="Path 23431" d="M32,85.7v1.052h.467Zm0,0" transform="translate(-30.72 -82.267)" fill="#12161f"/>
  <path id="Path_23432" data-name="Path 23432" d="M336,112h.64v.64H336Zm0,0" transform="translate(-324.053 -107.52)" fill="#12161f"/>
  <path id="Path_23433" data-name="Path 23433" d="M128,112h7.68v.64H128Zm0,0" transform="translate(-123.84 -107.52)" fill="#12161f"/>
  <path id="Path_23434" data-name="Path 23434" d="M137.833,0h-4.058l-1.646,3.84h7.35Zm-4.091,3.326-.588-.252.548-1.28.588.252Zm.756-1.764-.588-.252.2-.476.588.252Zm0,0" transform="translate(-127.804)" fill="#12161f"/>
  <path id="Path_23435" data-name="Path 23435" d="M329.92,304a1.92,1.92,0,1,0,1.92,1.92A1.92,1.92,0,0,0,329.92,304Zm0,2.88a.96.96,0,1,1,.96-.96A.96.96,0,0,1,329.92,306.88Zm0,0" transform="translate(-316.8 -291.84)" fill="#12161f"/>
  <path id="Path_23436" data-name="Path 23436" d="M32,128v.885l.442-.885Zm0,0" transform="translate(-30.72 -122.88)" fill="#12161f"/>
  <path id="Path_23437" data-name="Path 23437" d="M368.64,344.32a.32.32,0,1,1-.32-.32A.32.32,0,0,1,368.64,344.32Zm0,0" transform="translate(-355.2 -330.24)" fill="#12161f"/>
  <path id="Path_23438" data-name="Path 23438" d="M401.12,80H400v5.76h1.92V81.067Zm.16,3.2h-.64v-.64h.64Zm0-1.28h-.64v-.64h.64Zm0,0" transform="translate(-385.92 -76.8)" fill="#12161f"/>
  <path id="Path_23439" data-name="Path 23439" d="M25.92,304a1.92,1.92,0,1,0,1.92,1.92A1.92,1.92,0,0,0,25.92,304Zm0,2.88a.96.96,0,1,1,.96-.96A.96.96,0,0,1,25.92,306.88Zm0,0" transform="translate(-23.04 -291.84)" fill="#12161f"/>
  <path id="Path_23440" data-name="Path 23440" d="M114.191,304a2.774,2.774,0,0,1,.728,1.85l6.374-1.52a2.436,2.436,0,0,1,.264-.33Zm0,0" transform="translate(-109.611 -291.84)" fill="#12161f"/>
  <path id="Path_23441" data-name="Path 23441" d="M64.64,344.32a.32.32,0,1,1-.32-.32A.32.32,0,0,1,64.64,344.32Zm0,0" transform="translate(-61.44 -330.24)" fill="#12161f"/>
  <path id="Path_23442" data-name="Path 23442" d="M.32,40a.32.32,0,0,0-.32.32v5.76a.32.32,0,0,0,.64,0V40.32A.32.32,0,0,0,.32,40Zm0,0" transform="translate(0 -38.4)" fill="#12161f"/>
</svg>
