<svg xmlns="http://www.w3.org/2000/svg" width="15" height="15" viewBox="0 0 15 15">
  <g id="Group_23822" data-name="Group 23822" transform="translate(-6.206 -5.355)">
    <path id="Path_23403" data-name="Path 23403" d="M22.793,35.316a.824.824,0,0,0,.823-.823V31.649a.823.823,0,1,0-1.646,0v2.844A.824.824,0,0,0,22.793,35.316Z" transform="translate(-11.18 -18.949)" fill="#12161f"/>
    <path id="Path_23404" data-name="Path 23404" d="M11.7,4.626A.735.735,0,0,0,10.889,4a.735.735,0,0,0-.808.627V8.4H11.7Z" transform="translate(-2.748 1.356)" fill="#12161f"/>
    <path id="Path_23405" data-name="Path 23405" d="M43.525,41.382a2.925,2.925,0,0,0-3.785-2.8.248.248,0,0,1-.038.013,2.925,2.925,0,1,0,3.823,2.783Zm-1.354-.132-1.221,2.283a.5.5,0,0,1-.445.27.527.527,0,0,1-.128-.016.5.5,0,0,1-.386-.494V42.038h-.481a.545.545,0,0,1-.5-.757l.85-2.008a.51.51,0,0,1,.979.195l.008.981h.846a.545.545,0,0,1,.481.8Z" transform="translate(-22.319 -24.365)" fill="#c2a466"/>
    <path id="Path_23406" data-name="Path 23406" d="M44.873,44.061l-.007-.923-.693,1.639h.716a.291.291,0,0,1,.291.291v1.26l1.058-1.977H45.164a.291.291,0,0,1-.291-.289Z" transform="translate(-26.927 -27.686)" fill="#c2a466"/>
    <path id="Path_23407" data-name="Path 23407" d="M34.777,4a.736.736,0,0,0-.808.627V8.4h1.615V4.627A.736.736,0,0,0,34.777,4Z" transform="translate(-19.69 1.355)" fill="#12161f"/>
    <path id="Path_23408" data-name="Path 23408" d="M11.017,33.793h1.192a4.757,4.757,0,0,0,2.66-.805,3.486,3.486,0,0,1,2.152-4.063V25.5H6.206v3.482a4.817,4.817,0,0,0,4.811,4.811Zm-.808-5.921a1.4,1.4,0,1,1,2.809,0v2.844a1.4,1.4,0,1,1-2.809,0ZM7.422,29.293a.291.291,0,0,1-.582,0V27.962a.291.291,0,1,1,.582,0Zm0-2.25a.291.291,0,0,1-.582,0v-.285a.291.291,0,1,1,.582,0Z" transform="translate(0 -15.177)" fill="#12161f"/>
    <path id="Path_23409" data-name="Path 23409" d="M21.7,55.967c-.145,0-.288-.01-.43-.022V56.1a1.025,1.025,0,1,0,2.051,0V55.95q-.213.017-.428.017Z" transform="translate(-10.687 -36.769)" fill="#12161f"/>
  </g>
</svg>
