<svg xmlns="http://www.w3.org/2000/svg" width="25" height="25" viewBox="0 0 25 25">
  <g id="Notification" transform="translate(-989 -46)">
    <rect id="Rectangle_1322" data-name="Rectangle 1322" width="25" height="25" transform="translate(989 46)" fill="#12161f"/>
    <g id="Group_23811" data-name="Group 23811" transform="translate(997 49.996)">
      <path id="Path_564" data-name="Path 564" d="M10.625,9.212a.708.708,0,0,0-.708.708v2.833a.709.709,0,0,1-.708.708H7.083V2.837a1.428,1.428,0,0,0-.965-1.347l-.21-.07h3.3a.709.709,0,0,1,.708.708V4.254a.708.708,0,0,0,1.417,0V2.129A2.128,2.128,0,0,0,9.208,0H1.594a.556.556,0,0,0-.076.016C1.484.017,1.451,0,1.417,0A1.418,1.418,0,0,0,0,1.42V14.17a1.428,1.428,0,0,0,.965,1.347l4.263,1.421A1.466,1.466,0,0,0,5.667,17a1.418,1.418,0,0,0,1.417-1.417v-.708H9.208a2.128,2.128,0,0,0,2.125-2.125V9.92a.708.708,0,0,0-.708-.708Zm0,0" transform="translate(0 0)" fill="#fff"/>
      <path id="Path_565" data-name="Path 565" d="M284.916,109.706l-2.833-2.833a.708.708,0,0,0-1.209.5V109.5H278.04a.708.708,0,1,0,0,1.417h2.833v2.125a.708.708,0,0,0,1.209.5l2.833-2.833A.708.708,0,0,0,284.916,109.706Zm0,0" transform="translate(-268.124 -103.12)" fill="#c2a466"/>
    </g>
  </g>
</svg>
