<svg xmlns="http://www.w3.org/2000/svg" width="17" height="17" viewBox="0 0 17 17">
  <g id="Group_23774" data-name="Group 23774" transform="translate(-3 -3)">
    <circle id="Ellipse_2858" data-name="Ellipse 2858" cx="0.903" cy="0.903" r="0.903" transform="translate(3.855 11.214)" fill="#12161f"/>
    <path id="Path_23255" data-name="Path 23255" d="M3.879,45.448H5.638V42.517h.879V39.481A.484.484,0,0,0,6.037,39H3.492A.492.492,0,0,0,3,39.492v3.025h.879Z" transform="translate(0 -25.448)" fill="#12161f"/>
    <path id="Path_23256" data-name="Path 23256" d="M26.9,46.759h-4.69V46.09a.586.586,0,1,0-.586,0v.961a.293.293,0,0,0,.293.293H26.9a.293.293,0,0,1,0,.586H15.09a.586.586,0,1,0,0,.586H26.9a.879.879,0,1,0,0-1.759Z" transform="translate(-7.776 -29.69)" fill="#c2a466"/>
    <path id="Path_23257" data-name="Path 23257" d="M10.034,7.638V5H3V9.69H7.238a2.931,2.931,0,0,1,2.8-2.052ZM6.954,7.89,5.685,7.128l-1.3,1.316-.416-.416L5.43,6.562a.293.293,0,0,1,.358-.044l1.29.771.976-.812L7.4,6.466V5.879l1.466.015a.293.293,0,0,1,.293.293V7.345H8.569V6.811L7.291,7.875a.293.293,0,0,1-.337.026Z" transform="translate(0 -1.414)" fill="#12161f"/>
    <path id="Path_23258" data-name="Path 23258" d="M50,33h1.172v.879H50Z" transform="translate(-33.224 -21.207)" fill="#12161f"/>
    <path id="Path_23259" data-name="Path 23259" d="M38,33h1.759v2.925H38Z" transform="translate(-24.741 -21.207)" fill="#12161f"/>
    <path id="Path_23260" data-name="Path 23260" d="M32.138,26.741V20H25.443A2.931,2.931,0,0,1,21,23.517v3.224h4.4V23.517a.293.293,0,0,1,.293-.293h2.345a.293.293,0,0,1,.293.293v3.224Zm-3.224-3.224a.293.293,0,0,1,.293-.293h1.759a.293.293,0,0,1,.293.293v1.466a.293.293,0,0,1-.293.293H29.207a.293.293,0,0,1-.293-.293Z" transform="translate(-12.724 -12.017)" fill="#12161f"/>
    <path id="Path_23261" data-name="Path 23261" d="M21.345,20.69A2.345,2.345,0,1,0,19,18.345,2.345,2.345,0,0,0,21.345,20.69Zm-.237-3.684a.293.293,0,0,1,.469,0l.879,1.172-.469.352-.349-.478V19.81h-.586V18.052l-.352.469-.469-.352Z" transform="translate(-11.31 -9.19)" fill="#c2a466"/>
    <path id="Path_23262" data-name="Path 23262" d="M37.629,3H29V6.294a2.931,2.931,0,0,1,1.759,1.1h7.621Z" transform="translate(-18.379)" fill="#12161f"/>
  </g>
</svg>
