<svg xmlns="http://www.w3.org/2000/svg" width="20" height="20" viewBox="0 0 20 20">
  <g id="Favorite" transform="translate(-2.339 -2.002)">
    <rect id="Rectangle_17394" data-name="Rectangle 17394" width="20" height="20" transform="translate(2.339 2.002)" fill="#fff" opacity="0"/>
    <g id="Group_23835" data-name="Group 23835" transform="translate(5.672 8.952)">
      <path id="Path_23482" data-name="Path 23482" d="M984.262,1039.775h-1.577a3.133,3.133,0,0,1-3.155-2.839.61.61,0,0,1-.53-.606v-1.211a.379.379,0,0,1,.757,0v1.085c.618.1.467.757.593,1.123a2.455,2.455,0,0,0,2.334,1.691h1.577a2.391,2.391,0,0,0,2.4-2.082.677.677,0,0,1,.53-.732v-1.085a.379.379,0,0,1,.757,0v1.211a.6.6,0,0,1-.53.606l-.1.631A3.213,3.213,0,0,1,984.262,1039.775Z" transform="translate(-976.804 -1034.75)" fill="#999" fill-rule="evenodd"/>
      <path id="Path_23483" data-name="Path 23483" d="M817.946,1487.969H805.379a.38.38,0,0,1-.379-.379v-2.612a2.986,2.986,0,0,1,2.991-2.978H809.4a.379.379,0,0,1,0,.757h-1.413a2.227,2.227,0,0,0-2.233,2.221v2.233h11.811v-2.233a2.224,2.224,0,0,0-2.221-2.221h-1.413a.379.379,0,1,1,0-.757h1.413a2.984,2.984,0,0,1,2.978,2.978v2.612A.372.372,0,0,1,817.946,1487.969Z" transform="translate(-805 -1476.356)" fill="#999" fill-rule="evenodd"/>
      <path id="Path_23484" data-name="Path 23484" d="M1126.45,1483.575a.4.4,0,0,1-.177-.038l-2.271-1.262a.376.376,0,0,1,.366-.656l2.082,1.148,2.082-1.148a.376.376,0,1,1,.366.656l-2.259,1.262A.506.506,0,0,1,1126.45,1483.575Z" transform="translate(-1119.788 -1475.925)" fill="#999" fill-rule="evenodd"/>
      <path id="Path_23485" data-name="Path 23485" d="M1124.36,1359.253a.38.38,0,0,1-.366-.479l.4-1.577a.378.378,0,0,1,.732.189l-.4,1.577A.387.387,0,0,1,1124.36,1359.253Z" transform="translate(-1119.956 -1352.852)" fill="#999" fill-rule="evenodd"/>
      <path id="Path_23486" data-name="Path 23486" d="M1451.63,1359.253a.366.366,0,0,1-.366-.29l-.4-1.577a.378.378,0,0,1,.732-.189l.4,1.577A.386.386,0,0,1,1451.63,1359.253Z" transform="translate(-1442.697 -1352.852)" fill="#999" fill-rule="evenodd"/>
    </g>
    <path id="Path_23487" data-name="Path 23487" d="M1009.379,1771.347a.372.372,0,0,1-.379-.378v-1.59a.379.379,0,1,1,.757,0v1.59A.38.38,0,0,1,1009.379,1771.347Z" transform="translate(-1000.484 -1750.783)" fill="#999" fill-rule="evenodd"/>
    <path id="Path_23488" data-name="Path 23488" d="M1598.379,1771.347a.372.372,0,0,1-.379-.378v-1.59a.379.379,0,1,1,.757,0v1.59A.372.372,0,0,1,1598.379,1771.347Z" transform="translate(-1582.594 -1750.783)" fill="#999" fill-rule="evenodd"/>
    <path id="Path_23489" data-name="Path 23489" d="M963.2,586.883h-8.82A.372.372,0,0,1,954,586.5a4.769,4.769,0,0,1,3.621-4.644.378.378,0,0,1,.189.732,4.015,4.015,0,0,0-3.041,3.533h8.038a4.031,4.031,0,0,0-3.041-3.533.378.378,0,0,1,.189-.732,4.769,4.769,0,0,1,3.621,4.644A.372.372,0,0,1,963.2,586.883Z" transform="translate(-946.45 -578.609)" fill="#999" fill-rule="evenodd"/>
    <path id="Path_23490" data-name="Path 23490" d="M923.221,923.183h-9.842A.38.38,0,0,1,913,922.8v-1.426a.38.38,0,0,1,.379-.379h9.842a.372.372,0,0,1,.379.379V922.8A.372.372,0,0,1,923.221,923.183Zm-9.464-.757h9.085v-.669h-9.085Z" transform="translate(-905.966 -913.483)" fill="#999" fill-rule="evenodd"/>
    <path id="Path_23491" data-name="Path 23491" d="M1213.373,488.694h-1.754a.375.375,0,0,1-.378-.353l-.29-3.937a.386.386,0,0,1,.379-.4h2.322a.37.37,0,0,1,.378.4l-.278,3.937A.375.375,0,0,1,1213.373,488.694Zm-1.4-.757h1.047l.227-3.18h-1.514Z" transform="translate(-1200.156 -481.998)" fill="#999" fill-rule="evenodd"/>
    <path id="Path_23492" data-name="Path 23492" d="M500.648,1895.757h-19.3a.38.38,0,0,1,0-.757h19.3A.38.38,0,0,1,500.648,1895.757Z" transform="translate(-478.661 -1875.193)" fill="#999" fill-rule="evenodd"/>
    <path id="Path_23493" data-name="Path 23493" d="M688.784,2009.757h-14.44a.38.38,0,0,1,0-.757h14.44C689.232,2009,689.232,2009.757,688.784,2009.757Z" transform="translate(-669.225 -1987.754)" fill="#999" fill-rule="evenodd"/>
    <path id="Path_23495" data-name="Path 23495" d="M1124.866,1485.22a.4.4,0,0,1-.353-.24l-1.01-2.536a.38.38,0,0,1,.707-.278l.795,1.994.845-.871a.379.379,0,0,1,.542.53l-1.262,1.287A.394.394,0,0,1,1124.866,1485.22Z" transform="translate(-1113.689 -1467.331)" fill="#999" fill-rule="evenodd"/>
    <path id="Path_23496" data-name="Path 23496" d="M1304.543,1485.22a.454.454,0,0,1-.278-.114l-1.249-1.287a.379.379,0,0,1,.543-.53l.845.871.795-1.994a.38.38,0,0,1,.707.278l-1.009,2.536A.4.4,0,0,1,1304.543,1485.22Z" transform="translate(-1291.041 -1467.331)" fill="#999" fill-rule="evenodd"/>
    <path id="Path_23497" data-name="Path 23497" d="M1016.09,1488.158a.388.388,0,0,1-.353-.227l-2.271-5.211a.379.379,0,0,1,.694-.3l2.271,5.211A.376.376,0,0,1,1016.09,1488.158Z" transform="translate(-1004.926 -1467.594)" fill="#999" fill-rule="evenodd"/>
    <path id="Path_23498" data-name="Path 23498" d="M1413.71,1488.158a.376.376,0,0,1-.341-.53l2.259-5.211a.379.379,0,0,1,.694.3l-2.259,5.211A.388.388,0,0,1,1413.71,1488.158Z" transform="translate(-1400.195 -1467.594)" fill="#999" fill-rule="evenodd"/>
    <path id="Path_23499" data-name="Path 23499" d="M1261.242,1268.757h-1.123a.379.379,0,0,1,0-.757h1.123A.379.379,0,0,1,1261.242,1268.757Z" transform="translate(-1248.341 -1256.105)" fill="#999" fill-rule="evenodd"/>
  </g>
</svg>
