<svg xmlns="http://www.w3.org/2000/svg" width="19" height="20" viewBox="0 0 19 20">
  <g id="Notification" transform="translate(-995 -49)">
    <rect id="Rectangle_1322" data-name="Rectangle 1322" width="19" height="20" transform="translate(995 49)" fill="#ff7618" opacity="0"/>
    <path id="Path_23501" data-name="Path 23501" d="M3.179,15.146a3.724,3.724,0,0,0,1.858,3.217l5.444,3.144a3.725,3.725,0,0,0,3.714,0l5.444-3.144A3.724,3.724,0,0,0,21.5,15.146V8.859A3.724,3.724,0,0,0,19.64,5.642L14.2,2.5a3.726,3.726,0,0,0-3.714,0L5.037,5.642A3.724,3.724,0,0,0,3.179,8.859v6.287ZM4.608,8.859A2.291,2.291,0,0,1,5.751,6.879L11.2,3.736a2.29,2.29,0,0,1,2.286,0l5.444,3.144a2.291,2.291,0,0,1,1.143,1.979v6.287a2.291,2.291,0,0,1-1.143,1.979l-5.444,3.144a2.29,2.29,0,0,1-2.286,0L5.751,17.125a2.291,2.291,0,0,1-1.143-1.979Z" transform="translate(992.502 46.998)" fill="#c2a466"/>
    <path id="Icon_awesome-heart" data-name="Icon awesome-heart" d="M9.316,2.865a2.756,2.756,0,0,0-3.76.274l-.4.409-.4-.409A2.756,2.756,0,0,0,1,2.865a2.894,2.894,0,0,0-.2,4.19l3.9,4.026a.632.632,0,0,0,.913,0l3.9-4.026a2.892,2.892,0,0,0-.2-4.19Z" transform="translate(999.682 52.724)" fill="#c2a466"/>
  </g>
</svg>
