<svg xmlns="http://www.w3.org/2000/svg" width="12.823" height="14" viewBox="0 0 12.823 14">
  <g id="Favorite" transform="translate(-995.477 -49)">
    <path id="Path_23506" data-name="Path 23506" d="M8.285,2.5,2.829,5.586v6.82l5.656,3.25,5.817-3.25V5.586Z" transform="translate(993.323 46.924)" fill="#12161f"/>
    <path id="Path_23501" data-name="Path 23501" d="M3.179,11.2a2.607,2.607,0,0,0,1.3,2.252l3.811,2.2a2.607,2.607,0,0,0,2.6,0l3.811-2.2A2.607,2.607,0,0,0,16,11.2V6.8A2.607,2.607,0,0,0,14.7,4.55l-3.811-2.2a2.608,2.608,0,0,0-2.6,0L4.479,4.55A2.607,2.607,0,0,0,3.179,6.8v4.4Zm1-4.4a1.6,1.6,0,0,1,.8-1.385l3.811-2.2a1.6,1.6,0,0,1,1.6,0l3.811,2.2A1.6,1.6,0,0,1,15,6.8v4.4a1.6,1.6,0,0,1-.8,1.385l-3.811,2.2a1.6,1.6,0,0,1-1.6,0l-3.811-2.2a1.6,1.6,0,0,1-.8-1.385Z" transform="translate(992.298 46.998)" fill="#c2a466"/>
    <path id="Icon_awesome-heart" data-name="Icon awesome-heart" d="M6.521,2.68a1.929,1.929,0,0,0-2.632.192l-.278.286-.278-.286A1.929,1.929,0,0,0,.7,2.68a2.026,2.026,0,0,0-.14,2.933L3.29,8.431a.442.442,0,0,0,.639,0l2.73-2.818A2.024,2.024,0,0,0,6.521,2.68Z" transform="translate(998.278 50.933)" fill="#c2a466"/>
  </g>
</svg>
