<svg xmlns="http://www.w3.org/2000/svg" width="14" height="14" viewBox="0 0 14 14">
  <g id="Favorite" transform="translate(-1.593 -2.002)">
    <rect id="Rectangle_17394" data-name="Rectangle 17394" width="14" height="14" transform="translate(1.593 2.002)" fill="#fff" opacity="0"/>
    <path id="Path_23480" data-name="Path 23480" d="M8.285,2.5,2.829,5.586v6.82l5.656,3.25,5.817-3.25V5.586Z" fill="#12161f"/>
    <path id="Path_23481" data-name="Path 23481" d="M8.354,6.011,7.381,7.578,5.363,8.29,6.55,10.07v1.852l2.113-.593,1.78.593.237-2.089L11.7,8.29l-2.089-.9Z" fill="#c2a466"/>
    <path id="Path_23478" data-name="Path 23478" d="M9.815,13.485a.206.206,0,0,1,.059.182l-.159.924a1.2,1.2,0,0,0,1.749,1.27l.83-.437a.205.205,0,0,1,.19,0l.83.437a1.205,1.205,0,0,0,1.749-1.27l-.159-.924a.206.206,0,0,1,.059-.182l.672-.655a1.2,1.2,0,0,0-.668-2.055l-.929-.135a.206.206,0,0,1-.154-.112l-.416-.841a1.2,1.2,0,0,0-2.161,0l-.416.841a.206.206,0,0,1-.154.112l-.928.135a1.2,1.2,0,0,0-.668,2.055ZM9.789,11.9a.2.2,0,0,1,.166-.14l.928-.135a1.2,1.2,0,0,0,.908-.659l.416-.841a.205.205,0,0,1,.367,0l.416.841a1.2,1.2,0,0,0,.907.659l.928.135a.2.2,0,0,1,.113.35l-.672.655a1.206,1.206,0,0,0-.346,1.067l.159.924a.205.205,0,0,1-.3.216l-.831-.437a1.21,1.21,0,0,0-1.121,0h0l-.83.437a.205.205,0,0,1-.3-.216l.159-.924a1.206,1.206,0,0,0-.346-1.067l-.672-.655A.2.2,0,0,1,9.789,11.9Z" transform="translate(-3.797 -3.506)" fill="#999"/>
    <path id="Path_23479" data-name="Path 23479" d="M3.179,11.2a2.607,2.607,0,0,0,1.3,2.252l3.811,2.2a2.607,2.607,0,0,0,2.6,0l3.811-2.2A2.607,2.607,0,0,0,16,11.2V6.8A2.607,2.607,0,0,0,14.7,4.55l-3.811-2.2a2.609,2.609,0,0,0-2.6,0L4.479,4.55A2.607,2.607,0,0,0,3.179,6.8v4.4Zm1-4.4a1.6,1.6,0,0,1,.8-1.385l3.811-2.2a1.6,1.6,0,0,1,1.6,0l3.811,2.2A1.6,1.6,0,0,1,15,6.8v4.4a1.6,1.6,0,0,1-.8,1.385l-3.811,2.2a1.6,1.6,0,0,1-1.6,0l-3.811-2.2a1.6,1.6,0,0,1-.8-1.385Z" transform="translate(-0.998 0)" fill="#999"/>
  </g>
</svg>
