<svg id="e" xmlns="http://www.w3.org/2000/svg" width="17.019" height="17.019" viewBox="0 0 17.019 17.019">
  <path id="Path_23502" data-name="Path 23502" d="M15.99,364.339H6.929c-.013-.1-.027-.2-.041-.281a1.385,1.385,0,0,0-1.067-1.067,7.922,7.922,0,0,0-1.311-.1,7.892,7.892,0,0,0-1.311.1,1.386,1.386,0,0,0-1.067,1.067c-.014.085-.028.178-.041.281H1.029a1.029,1.029,0,1,0,0,2.059H2.092c.013.1.027.2.041.281A1.386,1.386,0,0,0,3.2,367.746a7.929,7.929,0,0,0,1.311.1,7.932,7.932,0,0,0,1.311-.1,1.385,1.385,0,0,0,1.067-1.067c.014-.085.028-.179.041-.281H15.99a1.029,1.029,0,0,0,0-2.059Z" transform="translate(0 -350.827)" fill="#fff"/>
  <path id="Path_23503" data-name="Path 23503" d="M15.99,183.039H14.927c-.013-.1-.027-.2-.041-.281a1.386,1.386,0,0,0-1.067-1.067,8.578,8.578,0,0,0-2.621,0,1.385,1.385,0,0,0-1.067,1.067c-.014.085-.028.178-.041.281H1.029a1.029,1.029,0,1,0,0,2.059H10.09c.013.1.027.2.041.281a1.385,1.385,0,0,0,1.067,1.067,8.578,8.578,0,0,0,2.621,0,1.386,1.386,0,0,0,1.067-1.067c.014-.085.028-.178.041-.281H15.99a1.029,1.029,0,1,0,0-2.059Z" transform="translate(0 -175.554)" fill="#fff"/>
  <path id="Path_23504" data-name="Path 23504" d="M1.029,3.508H2.092c.013.1.027.2.041.281A1.386,1.386,0,0,0,3.2,4.856a7.927,7.927,0,0,0,1.311.1,7.93,7.93,0,0,0,1.311-.1A1.386,1.386,0,0,0,6.888,3.789c.014-.085.028-.179.041-.281H15.99a1.029,1.029,0,1,0,0-2.059H6.929c-.013-.1-.027-.2-.041-.281A1.385,1.385,0,0,0,5.821.1,7.934,7.934,0,0,0,4.51,0,7.93,7.93,0,0,0,3.2.1,1.385,1.385,0,0,0,2.133,1.168c-.014.085-.028.179-.041.281H1.029a1.029,1.029,0,0,0,0,2.059Z" transform="translate(0)" fill="#fff"/>
</svg>
