<svg xmlns="http://www.w3.org/2000/svg" width="16" height="14.345" viewBox="0 0 16 14.345">
  <g id="Group_23828" data-name="Group 23828" transform="translate(-3 -6)">
    <path id="Path_23460" data-name="Path 23460" d="M43,24h1.931v1.1H43Z" transform="translate(-28.966 -13.034)" fill="#c2a466"/>
    <path id="Path_23461" data-name="Path 23461" d="M43,30h1.931v1.1H43Z" transform="translate(-28.966 -17.379)" fill="#c2a466"/>
    <path id="Path_23462" data-name="Path 23462" d="M33,30h2.207v1.1H33Z" transform="translate(-21.724 -17.379)" fill="#c2a466"/>
    <path id="Path_23463" data-name="Path 23463" d="M33,24h2.207v1.1H33Z" transform="translate(-21.724 -13.034)" fill="#c2a466"/>
    <path id="Path_23464" data-name="Path 23464" d="M14,40h9.931v.552H14Z" transform="translate(-7.966 -24.621)" fill="#12161f"/>
    <path id="Path_23465" data-name="Path 23465" d="M14,48h9.931v.552H14Z" transform="translate(-7.966 -30.414)" fill="#12161f"/>
    <path id="Path_23466" data-name="Path 23466" d="M14,52h9.931v1.655H14Z" transform="translate(-7.966 -33.31)" fill="#12161f"/>
    <path id="Path_23467" data-name="Path 23467" d="M14,44h9.931v.552H14Z" transform="translate(-7.966 -27.517)" fill="#12161f"/>
    <path id="Path_23468" data-name="Path 23468" d="M23,30h2.207v1.1H23Z" transform="translate(-14.483 -17.379)" fill="#c2a466"/>
    <path id="Path_23469" data-name="Path 23469" d="M8,16H21.241v.552H8Z" transform="translate(-3.621 -7.241)" fill="#c2a466"/>
    <path id="Path_23470" data-name="Path 23470" d="M5,24.69h.828V14.207H5.552a.276.276,0,0,1-.276-.276v-1.1a.276.276,0,0,1,.276-.276H19.345a.276.276,0,0,1,.276.276v1.1a.276.276,0,0,1-.276.276h-.276V24.69H19.9V12H5Z" transform="translate(-1.448 -4.345)" fill="#12161f"/>
    <path id="Path_23471" data-name="Path 23471" d="M10,30.483h.552V25.241a.276.276,0,0,1,.276-.276H21.31a.276.276,0,0,1,.276.276v5.241h.552V20H10Zm.552-9.655a.276.276,0,0,1,.276-.276H21.31a.276.276,0,0,1,.276.276v3.31a.276.276,0,0,1-.276.276H10.828a.276.276,0,0,1-.276-.276Z" transform="translate(-5.069 -10.138)" fill="#12161f"/>
    <path id="Path_23472" data-name="Path 23472" d="M14,24h1.931v1.1H14Z" transform="translate(-7.966 -13.034)" fill="#c2a466"/>
    <path id="Path_23473" data-name="Path 23473" d="M3,6H19V7.1H3Z" fill="#12161f"/>
    <path id="Path_23474" data-name="Path 23474" d="M14,30h1.931v1.1H14Z" transform="translate(-7.966 -17.379)" fill="#c2a466"/>
    <path id="Path_23475" data-name="Path 23475" d="M23,24h2.207v1.1H23Z" transform="translate(-14.483 -13.034)" fill="#c2a466"/>
  </g>
</svg>
