<svg xmlns="http://www.w3.org/2000/svg" width="16" height="15.313" viewBox="0 0 16 15.313">
  <g id="Layer_x0020_1" transform="translate(-0.875 -173)">
    <g id="Group_23821" data-name="Group 23821" transform="translate(0.875 173)">
      <path id="Path_23387" data-name="Path 23387" d="M220.758,703.177v-5.609A.8.8,0,0,1,221,697a.01.01,0,0,1,.011-.01v-1.926a2.565,2.565,0,0,0-2.01,2.5v5.609Zm2.694-6.409h.295a.212.212,0,0,0,.2-.168H227.4a.215.215,0,0,0,.21.168h.295V695h-.295a.217.217,0,0,0-.189.116h-3.483a.231.231,0,0,0-.189-.116h-.295Zm6.883.221.021.01.011.011a.806.806,0,0,1,.221.558v5.609h1.768v-5.609a2.52,2.52,0,0,0-.758-1.81,2.456,2.456,0,0,0-1.263-.694v1.926Z" transform="translate(-217.678 -689.506)" fill="#12161f"/>
      <path id="Path_23388" data-name="Path 23388" d="M650.631,607h3.02a.633.633,0,0,1,.631.631v2.357a.633.633,0,0,1-.631.631h-3.02a.633.633,0,0,1-.631-.631v-2.357A.633.633,0,0,1,650.631,607Z" transform="translate(-644.142 -602.433)" fill="#12161f"/>
      <path id="Path_23389" data-name="Path 23389" d="M790.137,458.01h-.926a.211.211,0,0,1-.211-.21v-1.589a.211.211,0,0,1,.211-.21h.926a.211.211,0,0,1,.21.21V457.8A.211.211,0,0,1,790.137,458.01Z" transform="translate(-781.679 -453.022)" fill="#12161f"/>
      <path id="Path_23390" data-name="Path 23390" d="M833,345.389a.211.211,0,0,0,.421,0v-1.179a.211.211,0,1,0-.421,0Z" transform="translate(-825.216 -342.2)" fill="#12161f"/>
      <path id="Path_23391" data-name="Path 23391" d="M650.716,248h2.852a.716.716,0,1,1,0,1.431h-2.852a.716.716,0,1,1,0-1.431Z" transform="translate(-644.142 -247.211)" fill="#12161f"/>
      <path id="Path_23392" data-name="Path 23392" d="M764.694,174.21h-1.484A.211.211,0,0,1,763,174v-.389a.609.609,0,0,1,.6-.61h.695a.611.611,0,0,1,.61.61V174A.211.211,0,0,1,764.694,174.21Z" transform="translate(-755.952 -173)" fill="#12161f"/>
      <g id="_475133872" transform="translate(0.228 14.092)">
        <path id="Path_23393" data-name="Path 23393" d="M115.21,1417h3.526a.211.211,0,0,1,.21.211v.8a.211.211,0,0,1-.21.21H115.21a.211.211,0,0,1-.21-.21v-.8A.211.211,0,0,1,115.21,1417Z" transform="translate(-115 -1417)" fill="#12161f"/>
        <path id="Path_23394" data-name="Path 23394" d="M1216.211,1417h3.536a.211.211,0,0,1,.21.211v.8a.211.211,0,0,1-.21.21h-3.536a.211.211,0,0,1-.211-.21v-.8A.211.211,0,0,1,1216.211,1417Z" transform="translate(-1204.413 -1417)" fill="#12161f"/>
      </g>
      <path id="Path_23395" data-name="Path 23395" d="M.187,1493a.212.212,0,0,0,0,.421H15.813a.212.212,0,0,0,0-.421Z" transform="translate(0 -1478.108)" fill="#12161f"/>
      <path id="Path_23396" data-name="Path 23396" d="M450.547,623h.505a.55.55,0,0,1,.547.547v2.189a.55.55,0,0,1-.547.547h-.505a.557.557,0,0,1-.547-.547v-2.189A.557.557,0,0,1,450.547,623Z" transform="translate(-446.247 -618.264)" fill="#12161f"/>
      <path id="Path_23397" data-name="Path 23397" d="M1105.547,623h.505a.548.548,0,0,1,.537.547v2.189a.548.548,0,0,1-.537.547h-.505a.55.55,0,0,1-.547-.547v-2.189A.55.55,0,0,1,1105.547,623Z" transform="translate(-1094.353 -618.264)" fill="#12161f"/>
    </g>
    <path id="Path_23398" data-name="Path 23398" d="M1050,695h.694v1.765H1050Z" transform="translate(-1039.057 -516.506)" fill="#12161f" fill-rule="evenodd"/>
    <path id="Path_23399" data-name="Path 23399" d="M592,695h.694v1.765H592Z" transform="translate(-585.877 -516.506)" fill="#12161f" fill-rule="evenodd"/>
    <path id="Path_23400" data-name="Path 23400" d="M605.779,1031.768a2.642,2.642,0,0,0,0,3.747,2.377,2.377,0,0,0,.442.347h2.863a2.313,2.313,0,0,0,.432-.347,2.646,2.646,0,0,0-3.736-3.747Zm.505,2.368a5.072,5.072,0,0,1,.895-1.8c.116-.168.21-.326.284-.432a.146.146,0,0,1,.074-.084.21.21,0,0,1,.295.074c.063.105.168.263.284.442a5.072,5.072,0,0,1,.895,1.8,1.31,1.31,0,0,1-.4.958,1.359,1.359,0,0,1-1.926,0A1.351,1.351,0,0,1,606.284,1034.136Z" transform="translate(-598.74 -847.97)" fill="#c2a466" fill-rule="evenodd"/>
    <path id="Path_23401" data-name="Path 23401" d="M767.831,1163.179a4.969,4.969,0,0,0-.831,1.568.919.919,0,0,0,.21.589,2.56,2.56,0,0,1,.421-.853c.053-.074.095-.147.126-.189a.209.209,0,0,1,.368-.01s.116.189.126.2a2.831,2.831,0,0,1,.431.853.971.971,0,0,0,.2-.589,5.128,5.128,0,0,0-.821-1.568l-.116-.179Z" transform="translate(-759.035 -978.581)" fill="#c2a466" fill-rule="evenodd"/>
    <path id="Path_23402" data-name="Path 23402" d="M826.326,1332a2.157,2.157,0,0,0-.326.589.31.31,0,0,0,.316.316h.01a.31.31,0,0,0,.316-.316A2.048,2.048,0,0,0,826.326,1332Z" transform="translate(-817.414 -1145.802)" fill="#c2a466" fill-rule="evenodd"/>
  </g>
</svg>
