<svg xmlns="http://www.w3.org/2000/svg" width="15" height="15" viewBox="0 0 15 15">
  <g id="Group_23776" data-name="Group 23776" transform="translate(-100 -103)">
    <path id="Path_23274" data-name="Path 23274" d="M762.3,171.662a.7.7,0,0,1,0-1.409v-3.9a1.328,1.328,0,0,0-1.322-1.332h-.007a1.326,1.326,0,0,0-1.321,1.331v3.9a.7.7,0,1,1,0,1.409v.557h2.65Zm-1.767-1.843a.227.227,0,0,1-.227-.227v-2.749a.227.227,0,0,1,.453,0v2.749a.227.227,0,0,1-.227.227Zm.884,0a.227.227,0,0,1-.227-.227v-2.749a.227.227,0,1,1,.453,0v2.749a.227.227,0,0,1-.227.227Z" transform="translate(-647.301 -60.848)" fill="#c2a466"/>
    <path id="Path_23275" data-name="Path 23275" d="M795.52,569.4h-1.339v-3.3h1.339Z" transform="translate(-681.179 -454.351)" fill="#c2a466"/>
    <path id="Path_23276" data-name="Path 23276" d="M778.417,763.216h-1.136l-.431-1.684.329-.892h1.339l.338.892Z" transform="translate(-664.177 -645.216)" fill="#c2a466"/>
    <path id="Path_23277" data-name="Path 23277" d="M292.339,487.443l.2-1.817a.283.283,0,0,0-.563-.056l-.212,1.953Z" transform="translate(-188.166 -375.095)" fill="#12161f"/>
    <path id="Path_23278" data-name="Path 23278" d="M495.619,487.09l-.2-1.817a.265.265,0,0,1,0-.03.283.283,0,0,1,.566-.026l.212,1.953Z" transform="translate(-388.009 -374.743)" fill="#12161f"/>
    <path id="Path_23279" data-name="Path 23279" d="M201.26,269.32H209.3v1.188H201.26Z" transform="translate(-99.347 -163.178)" fill="#12161f"/>
    <path id="Path_23280" data-name="Path 23280" d="M239.05,326.21a3.49,3.49,0,0,1,.1.837,3.436,3.436,0,1,1-6.871,0,3.491,3.491,0,0,1,.1-.837h.769a.383.383,0,0,1-.014.1,2.728,2.728,0,0,0-.1.736,2.68,2.68,0,1,0,5.36,0,2.729,2.729,0,0,0-.1-.736.38.38,0,0,1-.014-.1Z" transform="translate(-129.815 -218.993)" fill="#12161f"/>
    <path id="Path_23281" data-name="Path 23281" d="M241.211,105.764H234.42a3.467,3.467,0,0,1,6.791,0Z" transform="translate(-131.915)" fill="#12161f"/>
    <path id="Path_23282" data-name="Path 23282" d="M214.614,757.92h-.954v2.4h7.576v-2.4Z" transform="translate(-111.513 -642.547)" fill="#12161f"/>
    <path id="Path_23283" data-name="Path 23283" d="M102.875,594.122h-.954a.227.227,0,0,0-.227.227V597.2H100v-3.767c.02-1.105,1.7-1.714,2.875-2.006Z" transform="translate(0 -479.203)" fill="#12161f"/>
    <path id="Path_23284" data-name="Path 23284" d="M281.394,580.221c-.285-.059-.505-.094-.613-.111L278.787,582l-1.994-1.889c-.108.016-.328.052-.613.111v2.8h5.214Z" transform="translate(-172.89 -468.097)" fill="#12161f"/>
    <path id="Path_23285" data-name="Path 23285" d="M576.16,591.43v2.692h.954a.227.227,0,0,1,.227.227V597.2h1.694v-3.767C579.015,592.331,577.339,591.722,576.16,591.43Z" transform="translate(-467.248 -479.203)" fill="#12161f"/>
  </g>
</svg>
