<svg xmlns="http://www.w3.org/2000/svg" width="20" height="20" viewBox="0 0 20 20">
  <g id="Home" transform="translate(-2 -2)">
    <g id="Group_23594" data-name="Group 23594" transform="translate(2 2)">
      <path id="Path_629" data-name="Path 629" d="M11.095,3.692a1.322,1.322,0,0,1,1.811,0l7.972,7.461a.667.667,0,1,0,.911-.973L13.816,2.719a2.655,2.655,0,0,0-3.633,0L2.211,10.18a.667.667,0,1,0,.911.973Z" transform="translate(-2 -2)" fill="#999"/>
      <path id="Path_630" data-name="Path 630" d="M23.333,30a.667.667,0,0,1,.667.667V38a2.667,2.667,0,0,1-2.667,2.667H10.667A2.667,2.667,0,0,1,8,38V30.667a.667.667,0,1,1,1.333,0V38a1.333,1.333,0,0,0,1.333,1.333H12V34.667a4,4,0,0,1,8,0v4.667h1.333A1.333,1.333,0,0,0,22.667,38V30.667A.667.667,0,0,1,23.333,30Zm-4.667,4.667v4.667H13.333V34.667a2.667,2.667,0,0,1,5.333,0Z" transform="translate(-6 -20.667)" fill="#999" fill-rule="evenodd"/>
    </g>
  </g>
</svg>
