<svg xmlns="http://www.w3.org/2000/svg" width="12.816" height="16" viewBox="0 0 12.816 16">
  <path id="Path_23385" data-name="Path 23385" d="M33.764,22.145a.757.757,0,0,0-.748-.765H26.658a.757.757,0,0,0-.748.765v14.47a.757.757,0,0,0,.748.765h6.358a.757.757,0,0,0,.748-.765Zm.782,13.416V34.049h-.371v1.512Zm4.179-2.578H38.18v1.235a.3.3,0,0,1-.3.307H34.955v.559h2.924a.857.857,0,0,0,.846-.866Zm-4.179-8.273V23.2h-.371v1.512Zm.409-.477H37.88a.3.3,0,0,1,.3.307v1.235h.546V24.541a.857.857,0,0,0-.846-.866H34.956Zm-5.118,1.917a.491.491,0,1,1,.48-.491A.487.487,0,0,1,29.838,26.151Zm2.893-.361A2.986,2.986,0,0,1,32.1,27.5a3.718,3.718,0,0,0-1.4-1.6.96.96,0,0,0,.034-.247c0-.014,0-.028,0-.041A3.129,3.129,0,0,1,32.731,25.79Zm-.758-2.128a2.986,2.986,0,0,1,.743,1.668,3.582,3.582,0,0,0-2.1-.116.927.927,0,0,0-.176-.227A3.2,3.2,0,0,1,31.973,23.662ZM29.965,22.7a2.849,2.849,0,0,1,1.678.645,3.686,3.686,0,0,0-1.565,1.435.873.873,0,0,0-.24-.034H29.8A3.31,3.31,0,0,1,29.965,22.7Zm-2.083.774a2.862,2.862,0,0,1,1.634-.759,3.82,3.82,0,0,0-.115,2.147.925.925,0,0,0-.222.18A3.248,3.248,0,0,1,27.882,23.478Zm-.939,2.051a2.985,2.985,0,0,1,.631-1.714,3.709,3.709,0,0,0,1.4,1.6.959.959,0,0,0-.034.246c0,.014,0,.028,0,.041A3.127,3.127,0,0,1,26.943,25.529Zm.758,2.128a2.985,2.985,0,0,1-.743-1.668,3.254,3.254,0,0,0,1.193.219,4.322,4.322,0,0,0,.909-.1.9.9,0,0,0,.176.227A3.212,3.212,0,0,1,27.7,27.657Zm2.008.959a2.851,2.851,0,0,1-1.678-.645A3.686,3.686,0,0,0,29.6,26.536a.875.875,0,0,0,.241.034h.039A3.322,3.322,0,0,1,29.71,28.616Zm.449-.015a3.82,3.82,0,0,0,.115-2.147.892.892,0,0,0,.221-.18,3.244,3.244,0,0,1,1.3,1.568A2.861,2.861,0,0,1,30.159,28.6Zm.159,4.5a.481.481,0,1,1-.48-.491A.487.487,0,0,1,30.318,33.1Zm-.24-.876a.873.873,0,0,0-.24-.034H29.8a3.315,3.315,0,0,1,.168-2.047,2.851,2.851,0,0,1,1.678.645A3.69,3.69,0,0,0,30.078,32.224Zm.536.431a.927.927,0,0,0-.176-.227A3.2,3.2,0,0,1,31.973,31.1a2.987,2.987,0,0,1,.743,1.668A3.584,3.584,0,0,0,30.614,32.655Zm.081.692a.96.96,0,0,0,.034-.247c0-.014,0-.028,0-.041a3.129,3.129,0,0,1,2,.172,2.987,2.987,0,0,1-.631,1.715A3.718,3.718,0,0,0,30.7,33.346Zm-.422.547a.892.892,0,0,0,.221-.18,3.245,3.245,0,0,1,1.3,1.568,2.862,2.862,0,0,1-1.634.759A3.817,3.817,0,0,0,30.273,33.894Zm-.677.082a.875.875,0,0,0,.241.034h.039a3.325,3.325,0,0,1-.168,2.047,2.849,2.849,0,0,1-1.678-.645A3.68,3.68,0,0,0,29.6,33.976Zm-.536-.431a.9.9,0,0,0,.176.227A3.207,3.207,0,0,1,27.7,35.1a2.984,2.984,0,0,1-.743-1.668,3.253,3.253,0,0,0,1.193.218A4.344,4.344,0,0,0,29.06,33.545Zm-.081-.692a.959.959,0,0,0-.034.246c0,.014,0,.028,0,.041a3.127,3.127,0,0,1-2-.172,2.985,2.985,0,0,1,.631-1.714A3.709,3.709,0,0,0,28.979,32.854Zm.536-2.694a3.82,3.82,0,0,0-.115,2.147.925.925,0,0,0-.222.18,3.25,3.25,0,0,1-1.3-1.568A2.863,2.863,0,0,1,29.515,30.159Zm.322-7.879a3.38,3.38,0,1,1-3.308,3.379A3.348,3.348,0,0,1,29.838,22.281Zm0,7.441A3.379,3.379,0,1,1,26.53,33.1,3.348,3.348,0,0,1,29.838,29.721Z" transform="translate(-25.91 -21.38)" fill="#12161f" fill-rule="evenodd"/>
</svg>
