<svg xmlns="http://www.w3.org/2000/svg" width="36" height="27.999" viewBox="0 0 36 27.999">
  <path id="Icon_awesome-image" data-name="Icon awesome-image" d="M32.625,32.5H3.375A3.439,3.439,0,0,1,0,29V8A3.439,3.439,0,0,1,3.375,4.5h29.25A3.439,3.439,0,0,1,36,8V29A3.439,3.439,0,0,1,32.625,32.5ZM7.875,8.583a4.012,4.012,0,0,0-3.937,4.083A4.012,4.012,0,0,0,7.875,16.75a4.012,4.012,0,0,0,3.937-4.083A4.012,4.012,0,0,0,7.875,8.583ZM4.5,27.833h27V19.666l-6.153-6.381a.823.823,0,0,0-1.193,0l-9.528,9.881-3.9-4.048a.823.823,0,0,0-1.193,0L4.5,24.333Z" transform="translate(0 -4.5)" fill="#999"/>
</svg>
