<svg id="Group_6777" data-name="Group 6777" xmlns="http://www.w3.org/2000/svg" width="25" height="20" viewBox="0 0 25 20">
  <g id="photo-camera" transform="translate(0 0)">
    <g id="Group_666" data-name="Group 666">
      <path id="Path_4211" data-name="Path 4211" d="M22.5,13.75h-3a1.113,1.113,0,0,1-.987-.712l-.776-2.327A1.114,1.114,0,0,0,16.75,10H8.25a1.113,1.113,0,0,0-.987.712l-.776,2.327a1.114,1.114,0,0,1-.987.711h-3A2.507,2.507,0,0,0,0,16.25V27.5A2.507,2.507,0,0,0,2.5,30h20A2.507,2.507,0,0,0,25,27.5V16.25A2.507,2.507,0,0,0,22.5,13.75ZM12.5,27.5a6.25,6.25,0,1,1,6.25-6.25A6.25,6.25,0,0,1,12.5,27.5ZM21.625,18a.875.875,0,1,1,.875-.875A.875.875,0,0,1,21.625,18Z" transform="translate(0 -10)" fill="#12161f"/>
    </g>
  </g>
  <circle id="Ellipse_29" data-name="Ellipse 29" cx="4.812" cy="4.812" r="4.812" transform="translate(7.688 6.251)" fill="#c2a466"/>
</svg>
