<svg xmlns="http://www.w3.org/2000/svg" width="17" height="17" viewBox="0 0 17 17">
  <g id="Group_23775" data-name="Group 23775" transform="translate(0 0)">
    <path id="Path_23263" data-name="Path 23263" d="M229.734,69.273a.9.9,0,1,0-.9-.9A.9.9,0,0,0,229.734,69.273Z" transform="translate(-221.234 -65.229)" fill="#c2a466"/>
    <path id="Path_23264" data-name="Path 23264" d="M164.505,7.6l2.227-2.239a3.142,3.142,0,1,0-4.455,0Zm0-6.353a1.9,1.9,0,1,1-1.9,1.9A1.9,1.9,0,0,1,164.505,1.244Z" transform="translate(-156.005)" fill="#c2a466"/>
    <path id="Path_23265" data-name="Path 23265" d="M130.2,339.593l-2.862,5.724h8.544l-2.862-5.724Z" transform="translate(-123.113 -328.317)" fill="#12161f"/>
    <path id="Path_23266" data-name="Path 23266" d="M369.153,204.656l-1.12,2.24h-1.68l-.622,1.244h4.857v-3.484Z" transform="translate(-353.588 -197.861)" fill="#12161f"/>
    <path id="Path_23267" data-name="Path 23267" d="M4.235,206.9H2.554l-1.12-2.24H0v3.484H4.857Z" transform="translate(0 -197.861)" fill="#12161f"/>
    <path id="Path_23268" data-name="Path 23268" d="M334.857,345.317h3.115v-5.724h-5.977Zm.874-2.24h1v1h-1Z" transform="translate(-320.972 -328.317)" fill="#12161f"/>
    <path id="Path_23269" data-name="Path 23269" d="M0,339.593v5.724H3.114l2.862-5.724Zm2.24,4.48h-1v-1h1Zm.124-2.24v-1h1v1Z" transform="translate(0 -328.317)" fill="#12161f"/>
  </g>
</svg>
