<svg xmlns="http://www.w3.org/2000/svg" width="10.558" height="14" viewBox="0 0 10.558 14">
  <path id="Path_23376" data-name="Path 23376" d="M146.49,224.305a10.911,10.911,0,0,0,1.559,1.315,10.9,10.9,0,0,0,1.559-1.315,14.129,14.129,0,0,0,3.21-4.861,5.946,5.946,0,0,0-.231-5.313,5.484,5.484,0,0,0-.788-.984,5.365,5.365,0,0,0-7.5,0,5.483,5.483,0,0,0-.788.984,5.947,5.947,0,0,0-.231,5.313A14.131,14.131,0,0,0,146.49,224.305Zm1.559-10.276a3.222,3.222,0,1,1-2.278.944A3.222,3.222,0,0,1,148.049,214.029Z" transform="translate(-142.77 -211.62)" fill="#12161f" fill-rule="evenodd"/>
</svg>
