<svg xmlns="http://www.w3.org/2000/svg" width="16" height="16" viewBox="0 0 16 16">
  <g id="Icon" transform="translate(-6 -6)">
    <path id="Path_23410" data-name="Path 23410" d="M13.884,15.379H6.276A.276.276,0,0,1,6,15.1v-.966H7.379a.276.276,0,0,0,0-.552H6v-.828H7.379a.276.276,0,0,0,0-.552H6v-.828H7.379a.276.276,0,0,0,0-.552H6V9.862a.276.276,0,0,1,.276-.276h8a.276.276,0,0,1,.276.276v.966H13.172a.276.276,0,1,0,0,.552h1.379v.828H13.172a.276.276,0,1,0,0,.552h1.379v.828H13.172a.276.276,0,1,0,0,.552h1.379v.4A4.718,4.718,0,0,0,13.884,15.379Zm-1.539-4a.276.276,0,0,0-.276-.276H8.483a.276.276,0,0,0-.276.276v2.207a.276.276,0,0,0,.276.276h3.586a.276.276,0,0,0,.276-.276Zm-.552.276V13.31H8.759V11.655Zm5.931,1.519v-.83h-.552a.827.827,0,0,1-.828-.828v-.138h3.31v.138a.827.827,0,0,1-.828.828h-.552v.846q-.2-.018-.414-.018Zm-3.84,7.17H10.828A.827.827,0,0,1,10,19.517V17.862H9.862a.276.276,0,0,1-.276-.276v-.828H8.621a.276.276,0,0,1-.276-.276v-.552h3.862v.552a.276.276,0,0,1-.276.276h-.966v.828a.276.276,0,0,1-.276.276h-.138v1.655a.276.276,0,0,0,.276.276h2.76A4.682,4.682,0,0,0,13.884,20.345ZM6.414,9.034V7.241A.276.276,0,0,1,6.6,6.98l.639-.213V9.034ZM7.793,6H10V9.034H7.793ZM9.586,7.241a.276.276,0,0,0-.276-.276H8.483a.276.276,0,0,0-.276.276v1.1a.276.276,0,0,0,.276.276H9.31a.276.276,0,0,0,.276-.276Zm-.414.276v.552H8.621V7.517ZM10.552,6h2.207V9.034H10.552Zm1.793,1.241a.276.276,0,0,0-.276-.276h-.828a.276.276,0,0,0-.276.276v1.1a.276.276,0,0,0,.276.276h.828a.276.276,0,0,0,.276-.276Zm-.414.276v.552h-.552V7.517Zm1.379-.751.639.213a.276.276,0,0,1,.189.262V9.034H13.31Zm3.034,4.061V9.034h3.31v1.793Zm.276-2.345V6.276A.276.276,0,0,1,16.9,6h.966V7.127l-.2.2a.276.276,0,0,0-.081.2v.966ZM18.414,6h.69a.276.276,0,0,1,.276.276V8.483H18.138V7.631l.2-.2a.276.276,0,0,0,.081-.2Z" fill="#12161f" fill-rule="evenodd"/>
    <path id="Path_23411" data-name="Path 23411" d="M17.862,13.724a4.138,4.138,0,1,1-4.138,4.138A4.14,4.14,0,0,1,17.862,13.724Zm2.069,2.207H15.793a.827.827,0,0,0-.828.828v2.207a.827.827,0,0,0,.828.828h4.138a.827.827,0,0,0,.828-.828V16.759a.827.827,0,0,0-.828-.828Zm0,.552a.276.276,0,0,1,.276.276v2.207a.276.276,0,0,1-.276.276H15.793a.276.276,0,0,1-.276-.276V16.759a.276.276,0,0,1,.276-.276Zm-.276,2.483a.276.276,0,0,0,.276-.276v-.966a.276.276,0,0,0-.276-.276h-.641l-.206-.516a.276.276,0,0,0-.256-.173H17.172a.276.276,0,0,0-.256.173l-.206.516h-.641a.276.276,0,0,0-.276.276v.966a.276.276,0,0,0,.276.276Zm-.414-.552a.276.276,0,0,0-.552,0h-.138a.276.276,0,0,0-.552,0h-.276a.276.276,0,0,0-.552,0h-.138a.276.276,0,0,0-.552,0h-.138V18H16.9a.276.276,0,0,0,.256-.173l.206-.516h1.006l.206.516a.276.276,0,0,0,.256.173h.552v.414Z" fill="#c2a466" fill-rule="evenodd"/>
  </g>
</svg>
