<svg xmlns="http://www.w3.org/2000/svg" width="17" height="17" viewBox="0 0 17 17">
  <g id="Group_23772" data-name="Group 23772" transform="translate(-3 -3)">
    <path id="Path_23233" data-name="Path 23233" d="M31.232,23.576,31.9,22.9l.672-.672-.318-.318-1.344,1.344Z" transform="translate(-19.732 -13.37)" fill="#12161f"/>
    <path id="Path_23234" data-name="Path 23234" d="M39.384,34.435l.351-.285L39,33.414v.637Z" transform="translate(-25.448 -21.5)" fill="#12161f"/>
    <path id="Path_23235" data-name="Path 23235" d="M37.02,26.8l1.422,1.422h.465v-.465l-2.345-2.345-.182.182A3.269,3.269,0,0,1,37.02,26.8Z" transform="translate(-23.596 -15.844)" fill="#12161f"/>
    <path id="Path_23236" data-name="Path 23236" d="M0,0H2.315V.657H0Z" transform="translate(15.723 9.449) rotate(-45)" fill="#c2a466"/>
    <path id="Path_23237" data-name="Path 23237" d="M45.324,13.352v-3.29l-.343-.513-4.913,4.72,1.85,1.85Zm-4.018.518,2.052-2.052a.293.293,0,0,1,.414,0l.879.879a.293.293,0,0,1,0,.414L42.6,15.164a.293.293,0,0,1-.414,0l-.879-.879A.293.293,0,0,1,41.306,13.87Z" transform="translate(-26.203 -4.63)" fill="#c2a466"/>
    <path id="Path_23238" data-name="Path 23238" d="M43.26,7.071l.773-.743-.275-.276a1,1,0,0,1,0-1.415l1.076-1.076A.329.329,0,0,0,44.6,3h-.894A1.708,1.708,0,0,0,42,4.708a2.64,2.64,0,0,0,.779,1.88Z" transform="translate(-27.569 0)" fill="#c2a466"/>
    <path id="Path_23239" data-name="Path 23239" d="M20.413,17.828a.293.293,0,0,1-.086-.207v-.808a2.687,2.687,0,0,0-.6-1.7l-.661.661a.293.293,0,0,1-.414,0l-1.612-1.612a.293.293,0,0,1,0-.414l1.419-1.419a1.365,1.365,0,1,0-1.93-1.93l-3.118,3.117L24.566,24.67a.95.95,0,1,0,1.345-1.344Z" transform="translate(-7.362 -4.948)" fill="#12161f"/>
    <path id="Path_23240" data-name="Path 23240" d="M57.363,24.795l-.45-.45-.837.679.528.528a.536.536,0,1,0,.759-.757Z" transform="translate(-37.52 -15.089)" fill="#c2a466"/>
    <path id="Path_23241" data-name="Path 23241" d="M7.225,43.7a.735.735,0,0,0,.509,1.264.944.944,0,0,0,.593-.21l6.038-4.906L12.832,38.31Z" transform="translate(-2.827 -24.961)" fill="#12161f"/>
    <path id="Path_23242" data-name="Path 23242" d="M28.379,20.707l1.344-1.344-.471-.471c-.039.048-.081.094-.125.138l-1.213,1.212Z" transform="translate(-17.612 -11.234)" fill="#12161f"/>
    <path id="Path_23243" data-name="Path 23243" d="M8.879,15.749l.379-.379,1.991-1.991-.465-.465-2.37,2.37Z" transform="translate(-3.827 -7.008)" fill="#12161f"/>
    <path id="Path_23244" data-name="Path 23244" d="M5.784,4.465a1.345,1.345,0,0,1,.958.4L7.836,5.956l.9-.9L7.189,3.5A1.7,1.7,0,0,0,5.981,3,2.985,2.985,0,0,0,3,5.981a.3.3,0,0,0,.086.207.3.3,0,0,0,.414,0L4.827,4.862A1.345,1.345,0,0,1,5.784,4.465Z" transform="translate(0 0)" fill="#12161f"/>
  </g>
</svg>
