<svg id="Group_23602" data-name="Group 23602" xmlns="http://www.w3.org/2000/svg" width="20" height="20" viewBox="0 0 20 20">
  <path id="Path_643" data-name="Path 643" d="M13,17.667A.667.667,0,0,1,13.667,17h8.667a.667.667,0,0,1,0,1.333H13.667A.667.667,0,0,1,13,17.667Z" transform="translate(-9.333 -12)" fill="#999"/>
  <path id="Path_644" data-name="Path 644" d="M13.667,29a.667.667,0,1,0,0,1.333H19A.667.667,0,0,0,19,29Z" transform="translate(-9.333 -20)" fill="#999"/>
  <path id="Path_645" data-name="Path 645" d="M6.165,2A3.9,3.9,0,0,0,2.258,5.434a37.1,37.1,0,0,0,0,8.747,3.873,3.873,0,0,0,2.99,3.332L4.9,18.43a.667.667,0,0,0,.878.853L8.3,18.239a3.264,3.264,0,0,0,3.171,2.4h4.188l3.157,1.306a.667.667,0,0,0,.878-.853l-.223-.587A3.224,3.224,0,0,0,21.8,17.773a29.477,29.477,0,0,0,0-6.907A3.228,3.228,0,0,0,19.29,8.085c-.044-.86-.12-1.741-.229-2.678A3.894,3.894,0,0,0,15.16,2ZM3.583,5.581A2.565,2.565,0,0,1,6.165,3.333H15.16a2.561,2.561,0,0,1,2.577,2.228,34.165,34.165,0,0,1,0,8.491,2.564,2.564,0,0,1-2.579,2.233H9.666a.667.667,0,0,0-.255.051L6.7,17.46l.1-.271a.667.667,0,0,0-.074-.615.675.675,0,0,0-.556-.288,2.568,2.568,0,0,1-2.583-2.251,35.769,35.769,0,0,1,0-8.454ZM19.332,9.5a37.387,37.387,0,0,1-.274,4.71,3.9,3.9,0,0,1-3.9,3.413H9.8l-.247.1a1.921,1.921,0,0,0,1.919,1.588h4.321a.666.666,0,0,1,.255.051l1.86.77a.667.667,0,0,1,.644-.821,1.919,1.919,0,0,0,1.92-1.682,28.149,28.149,0,0,0,0-6.616A1.882,1.882,0,0,0,19.332,9.5Z" transform="translate(-2 -2)" fill="#999" fill-rule="evenodd"/>
</svg>
