<svg xmlns="http://www.w3.org/2000/svg" xmlns:xlink="http://www.w3.org/1999/xlink" width="74.74200439453125" height="70.14450073242188" viewBox="-1930.342788696289 5505.23193359375 18.685501098632812 17.53612518310547"><g><path d="M 65.57791137695312 98.01422882080078 C 65.52103424072266 98.06899261474609 65.44675445556641 98.09781646728516 65.37081146240234 98.09781646728516 C 65.33176422119141 98.09781646728516 65.29230499267578 98.09017181396484 65.25495147705078 98.07403564453125 C 65.14501190185547 98.02779388427734 65.07370758056641 97.91996765136719 65.07370758056641 97.80072021484375 L 65.07370758056641 95.76260375976562 L 63.83226776123047 95.76260375976562 C 62.97578430175781 95.76260375976562 62.27883911132812 95.06528472900391 62.27883911132812 94.20793151855469 L 62.27883911132812 91.08369445800781 C 62.27883911132812 90.22721099853516 62.97574615478516 89.53030395507812 63.83226776123047 89.53030395507812 L 72.68881988525391 89.53030395507812 C 72.49102783203125 88.67294311523438 71.72152709960938 88.03970336914062 70.81495666503906 88.03970336914062 L 69.94615173339844 88.03970336914062 L 69.94615173339844 84.99698638916016 C 69.94615173339844 82.95465087890625 68.28451538085938 81.29297637939453 66.24214172363281 81.29297637939453 C 64.19852447509766 81.29297637939453 62.53643798828125 82.95461273193359 62.53643798828125 84.99698638916016 L 62.53643798828125 88.03970336914062 L 61.66762542724609 88.03970336914062 C 60.60784912109375 88.03970336914062 59.74495697021484 88.90300750732422 59.74495697021484 89.96364593505859 L 59.74495697021484 96.90688323974609 C 59.74495697021484 97.96666717529297 60.60781097412109 98.8291015625 61.66762542724609 98.8291015625 L 70.81491851806641 98.8291015625 C 71.87515258789062 98.8291015625 72.73758697509766 97.96665954589844 72.73758697509766 96.90688323974609 L 72.73758697509766 95.76260375976562 L 67.90121459960938 95.76260375976562 L 65.57791137695312 98.01422882080078 Z M 64.28083801269531 84.99702453613281 C 64.28083801269531 83.91645050048828 65.16069793701172 83.03741455078125 66.24214172363281 83.03741455078125 C 67.32272338867188 83.03741455078125 68.20171356201172 83.91640472412109 68.20171356201172 84.99702453613281 L 68.20171356201172 88.03973388671875 L 64.28083801269531 88.03973388671875 L 64.28083801269531 84.99702453613281 Z" transform="matrix(1,0,0,1,-1990.087745666504,5423.9389572143555)" fill="#12161f" fill-rule="evenodd"/><path d="M 77.4716796875 90.12496185302734 L 63.83222961425781 90.12496185302734 C 63.30337524414062 90.12496185302734 62.87345886230469 90.55491638183594 62.87345886230469 91.08373260498047 L 62.87345886230469 94.20796966552734 C 62.87345886230469 94.73765563964844 63.30341339111328 95.16802978515625 63.83222961425781 95.16802978515625 L 65.37076568603516 95.16802978515625 C 65.53501892089844 95.16802978515625 65.66787719726562 95.30129241943359 65.66787719726562 95.46554565429688 L 65.66787719726562 97.09876251220703 L 67.57395935058594 95.25206756591797 C 67.62913513183594 95.19817352294922 67.70342254638672 95.16802978515625 67.78064727783203 95.16802978515625 L 77.4716796875 95.16802978515625 C 78.00052642822266 95.16802978515625 78.43045806884766 94.73765563964844 78.43045806884766 94.20796966552734 L 78.43045806884766 91.08373260498047 C 78.43045806884766 90.55491638183594 78.00049591064453 90.12496185302734 77.4716796875 90.12496185302734 Z M 67.98228454589844 93.05691528320312 C 68.12445068359375 93.13880920410156 68.17283630371094 93.3209228515625 68.0909423828125 93.46266937255859 C 68.0357666015625 93.55817413330078 67.93604278564453 93.61166381835938 67.83329772949219 93.61166381835938 C 67.78279113769531 93.61166381835938 67.73183441162109 93.59850311279297 67.6851806640625 93.57173919677734 L 66.97342681884766 93.16047668457031 L 66.97342681884766 93.98300170898438 C 66.97342681884766 94.14725494384766 66.84056854248047 94.280517578125 66.67632293701172 94.280517578125 C 66.51207733154297 94.280517578125 66.37921905517578 94.14725494384766 66.37921905517578 93.98300170898438 L 66.37921905517578 93.16047668457031 L 65.66745758056641 93.57173919677734 C 65.62075805664062 93.59846496582031 65.56942749023438 93.61166381835938 65.51934051513672 93.61166381835938 C 65.41664123535156 93.61166381835938 65.31646728515625 93.55817413330078 65.26169586181641 93.46266937255859 C 65.17935180664062 93.3209228515625 65.2281494140625 93.13885498046875 65.370361328125 93.05691528320312 L 66.08211517333984 92.64606475830078 L 65.37035369873047 92.23480224609375 C 65.2281494140625 92.15290069580078 65.17934417724609 91.97124481201172 65.26169586181641 91.82904052734375 C 65.34359741210938 91.68683624267578 65.52526092529297 91.63802337646484 65.66745758056641 91.72038269042969 L 66.37921905517578 92.1312255859375 L 66.37921905517578 91.30994415283203 C 66.37921905517578 91.14569854736328 66.51207733154297 91.01284027099609 66.67632293701172 91.01284027099609 C 66.84056091308594 91.01284027099609 66.97342681884766 91.14569854736328 66.97342681884766 91.30994415283203 L 66.97342681884766 92.1312255859375 L 67.6851806640625 91.72038269042969 C 67.82733917236328 91.63802337646484 68.00901031494141 91.68683624267578 68.0909423828125 91.82904052734375 C 68.17283630371094 91.97124481201172 68.12448883056641 92.15286254882812 67.98228454589844 92.23480224609375 L 67.27052307128906 92.64606475830078 L 67.98228454589844 93.05691528320312 Z M 71.95751190185547 93.05691528320312 C 72.09970855712891 93.13925933837891 72.14805603027344 93.3209228515625 72.066162109375 93.46308898925781 C 72.010986328125 93.55817413330078 71.91126251220703 93.61161804199219 71.80851745605469 93.61161804199219 C 71.75801086425781 93.61161804199219 71.70709991455078 93.59846496582031 71.65998077392578 93.57170104980469 L 70.94863891601562 93.16044616699219 L 70.94863891601562 93.98296356201172 C 70.94863891601562 94.147216796875 70.81537628173828 94.28048706054688 70.65154266357422 94.28048706054688 C 70.48728942871094 94.28048706054688 70.35402679443359 94.147216796875 70.35402679443359 93.98296356201172 L 70.35402679443359 93.16127014160156 L 69.64395904541016 93.57170104980469 C 69.59685516357422 93.59841918945312 69.54592895507812 93.61161804199219 69.49542999267578 93.61161804199219 C 69.39272308349609 93.61161804199219 69.29296875 93.55813598632812 69.23778533935547 93.46308898925781 C 69.1558837890625 93.32088470458984 69.20424652099609 93.13925933837891 69.34644317626953 93.05691528320312 L 70.05778503417969 92.64606475830078 L 69.34644317626953 92.23480224609375 C 69.20424652099609 92.15290069580078 69.1558837890625 91.97124481201172 69.23778533935547 91.82904052734375 C 69.32013702392578 91.68683624267578 69.50180816650391 91.63802337646484 69.64395904541016 91.72038269042969 L 70.35402679443359 92.13035583496094 L 70.35402679443359 91.30994415283203 C 70.35402679443359 91.14569854736328 70.48728942871094 91.01283264160156 70.65154266357422 91.01283264160156 C 70.81537628173828 91.01283264160156 70.94863891601562 91.14569854736328 70.94863891601562 91.30994415283203 L 70.94863891601562 92.1312255859375 L 71.65998077392578 91.72038269042969 C 71.80219268798828 91.63802337646484 71.98381042480469 91.68683624267578 72.066162109375 91.82903289794922 C 72.14805603027344 91.97124481201172 72.09970855712891 92.15286254882812 71.95751190185547 92.23479461669922 L 71.24616241455078 92.64605712890625 L 71.95751190185547 93.05691528320312 Z M 75.93354797363281 93.05691528320312 C 76.07575225830078 93.13880920410156 76.12455749511719 93.3209228515625 76.04220581054688 93.46266937255859 C 75.98744201660156 93.55817413330078 75.88730621337891 93.61166381835938 75.78456878662109 93.61166381835938 C 75.73406219482422 93.61166381835938 75.68314361572266 93.59850311279297 75.63645172119141 93.57173919677734 L 74.92469024658203 93.16047668457031 L 74.92469024658203 93.98300170898438 C 74.92469024658203 94.14725494384766 74.79183197021484 94.280517578125 74.62758636474609 94.280517578125 C 74.46333312988281 94.280517578125 74.33048248291016 94.14725494384766 74.33048248291016 93.98300170898438 L 74.33048248291016 93.16047668457031 L 73.61872100830078 93.57173919677734 C 73.57202911376953 93.59846496582031 73.52111053466797 93.61166381835938 73.47061157226562 93.61166381835938 C 73.36790466308594 93.61166381835938 73.26772308349609 93.55817413330078 73.21295928955078 93.46266937255859 C 73.130615234375 93.3209228515625 73.17941284179688 93.13885498046875 73.32162475585938 93.05691528320312 L 74.03338623046875 92.64606475830078 L 73.32162475585938 92.23480224609375 C 73.17942047119141 92.15290069580078 73.130615234375 91.97124481201172 73.21295928955078 91.82904052734375 C 73.29485321044922 91.68683624267578 73.47652435302734 91.63802337646484 73.61872100830078 91.72038269042969 L 74.33048248291016 92.1312255859375 L 74.33048248291016 91.30994415283203 C 74.33048248291016 91.14569854736328 74.46333312988281 91.01284027099609 74.62758636474609 91.01284027099609 C 74.79183197021484 91.01284027099609 74.92469024658203 91.14569854736328 74.92469024658203 91.30994415283203 L 74.92469024658203 92.1312255859375 L 75.63645172119141 91.72038269042969 C 75.77864837646484 91.63802337646484 75.96031188964844 91.68683624267578 76.04220581054688 91.82904052734375 C 76.12455749511719 91.97124481201172 76.07575225830078 92.15286254882812 75.93354797363281 92.23480224609375 L 75.22179412841797 92.64606475830078 L 75.93354797363281 93.05691528320312 Z" transform="matrix(1,0,0,1,-1990.087745666504,5423.93896484375)" fill="#c2a466" fill-rule="evenodd"/></g></svg>