<svg xmlns="http://www.w3.org/2000/svg" width="18" height="19.051" viewBox="0 0 18 19.051">
  <g id="Group_23810" data-name="Group 23810" transform="translate(-16 -15.302)">
    <path id="Path_23380" data-name="Path 23380" d="M232.02,67.307a1.307,1.307,0,0,1,2.614,0v2.3H232.02Z" transform="translate(-208.327 -50.698)" fill="#c2a466"/>
    <path id="Path_23381" data-name="Path 23381" d="M204.27,346.44h5.638v2.606a2.819,2.819,0,1,1-5.638,0Z" transform="translate(-182.089 -317.512)" fill="#c2a466"/>
    <path id="Path_23382" data-name="Path 23382" d="M99.718,111.13a6.358,6.358,0,0,0-6.358,6.358v2.8a2.022,2.022,0,0,1-.592,1.43l-1.544,1.544a1.277,1.277,0,0,0,.9,2.18h15.445a1.277,1.277,0,0,0,.9-2.18l-1.544-1.544a2.022,2.022,0,0,1-.592-1.43v-2.8a6.358,6.358,0,0,0-6.358-6.358Z" transform="translate(-74.85 -94.024)" fill="#12161f"/>
  </g>
</svg>
