<svg xmlns="http://www.w3.org/2000/svg" width="16" height="16" viewBox="0 0 16 16">
  <path id="Path_23505" data-name="Path 23505" d="M4.8,16.048V18.8A1.2,1.2,0,0,0,6,20H7.6V16.512l-2.588-.4A.968.968,0,0,1,4.8,16.048Zm4.8.8-1.2-.192V20H10a2,2,0,0,1-.4-1.2V16.828ZM17.2,8H11.6a1.2,1.2,0,0,0-1.2,1.2v9.6A1.2,1.2,0,0,0,11.6,20h7.2A1.2,1.2,0,0,0,20,18.8v-8H18.4a1.2,1.2,0,0,1-1.2-1.2ZM14,18.4h2.4a.4.4,0,1,0,0-.8H14a.4.4,0,1,0,0,.8Zm-1.2-1.6h4.8a.4.4,0,0,0,0-.8H12.8a.4.4,0,1,0,0,.8ZM9.6,5.6V5.2A1.2,1.2,0,0,1,10.8,4h2.4a1.2,1.2,0,0,1,1.2,1.2v.4h4.4A1.2,1.2,0,0,1,20,6.8V8.636l-.848-.852A2,2,0,0,0,17.736,7.2H11.6a2,2,0,0,0-2,2v6.828l-2-.316v-2.98A1.2,1.2,0,0,0,8.4,11.6V10a1.2,1.2,0,0,0-.8-1.132V5.6Zm-2.8,0V8.868A1.2,1.2,0,0,0,6,10v1.6a1.2,1.2,0,0,0,.8,1.132V15.6l-1.788-.284A1.2,1.2,0,0,1,4,14.116V6.8A1.2,1.2,0,0,1,5.2,5.6Zm10.256,8.9a2.8,2.8,0,1,0-3.712,0h0a2.8,2.8,0,0,0,3.7,0h0Zm-3-.456a1.2,1.2,0,0,1,2.288,0,2,2,0,0,1-2.288,0Zm-.588-.64a2,2,0,1,1,3.464,0,2,2,0,0,0-.736-.732,1.2,1.2,0,1,0-2,0,2,2,0,0,0-.736.732ZM15.2,11.6a.4.4,0,1,1-.4.4A.4.4,0,0,1,15.2,11.6Zm-8,.4a.4.4,0,0,1-.4-.4V10a.4.4,0,0,1,.8,0v1.6A.4.4,0,0,1,7.2,12ZM18,8.048V9.6a.4.4,0,0,0,.4.4h1.552a1.2,1.2,0,0,0-.3-.516L18.516,8.352A1.2,1.2,0,0,0,18,8.048ZM13.6,5.6H10.4V5.2a.4.4,0,0,1,.4-.4h2.4a.4.4,0,0,1,.4.4Z" transform="translate(-4 -4)" fill="#fff" fill-rule="evenodd"/>
</svg>
