<svg xmlns="http://www.w3.org/2000/svg" width="20" height="20" viewBox="0 0 20 20">
  <g id="Group_23604" data-name="Group 23604" transform="translate(-2 -2)">
    <path id="Path_647" data-name="Path 647" d="M10,4a3,3,0,1,0,3,3A3,3,0,0,0,10,4ZM5,7a5,5,0,1,1,5,5A5,5,0,0,1,5,7Z" fill="#999" fill-rule="evenodd"/>
    <path id="Path_648" data-name="Path 648" d="M10,15a6,6,0,0,0-6,6,1,1,0,0,1-2,0,8,8,0,0,1,16,0,1,1,0,0,1-2,0A6,6,0,0,0,10,15Z" fill="#999" fill-rule="evenodd"/>
    <path id="Path_649" data-name="Path 649" d="M18,3a1,1,0,0,1,1-1h2a1,1,0,0,1,0,2H19A1,1,0,0,1,18,3Z" fill="#999" fill-rule="evenodd"/>
    <path id="Path_650" data-name="Path 650" d="M16,7a1,1,0,0,1,1-1h4a1,1,0,0,1,0,2H17A1,1,0,0,1,16,7Z" fill="#999" fill-rule="evenodd"/>
    <path id="Path_651" data-name="Path 651" d="M19,11a1,1,0,0,1,1-1h1a1,1,0,0,1,0,2H20A1,1,0,0,1,19,11Z" fill="#999" fill-rule="evenodd"/>
  </g>
</svg>
