<svg id="Group_23823" data-name="Group 23823" xmlns="http://www.w3.org/2000/svg" width="15" height="15" viewBox="0 0 15 15">
  <path id="Path_23414" data-name="Path 23414" d="M121,298.2a.879.879,0,0,0,1.758,0v-5.547a1.7,1.7,0,0,1-1.758,0Z" transform="translate(-117.455 -284.082)" fill="#c2a466"/>
  <path id="Path_23415" data-name="Path 23415" d="M211,247.8a1.707,1.707,0,0,1,2.637,0v-6.182a1.707,1.707,0,0,0-2.637,0Z" transform="translate(-204.818 -233.939)" fill="#12161f"/>
  <path id="Path_23416" data-name="Path 23416" d="M213.637,6.592V.411a2.322,2.322,0,0,0-2.637,0V6.592a2.322,2.322,0,0,1,2.637,0Z" transform="translate(-204.818)" fill="#12161f"/>
  <path id="Path_23417" data-name="Path 23417" d="M2.666.879A.879.879,0,0,0,1.787,0,1.956,1.956,0,0,0,.031,1.157.435.435,0,0,0,0,1.318V6.9a2.957,2.957,0,0,1,1.787-.721,2.311,2.311,0,0,1,.879.187Z" transform="translate(0 0)" fill="#12161f"/>
  <path id="Path_23418" data-name="Path 23418" d="M0,242.1v5.523a.438.438,0,0,0,.354.429.445.445,0,0,0,.493-.263,1.058,1.058,0,0,1,.94-.605,2.439,2.439,0,0,1,.879.215V241.29a1.7,1.7,0,0,0-.879-.29C.871,241,.085,242,0,242.1Z" transform="translate(0 -233.939)" fill="#12161f"/>
  <path id="Path_23419" data-name="Path 23419" d="M421.879,0A.879.879,0,0,0,421,.879v5.49a2.311,2.311,0,0,1,.879-.187,2.957,2.957,0,0,1,1.787.721V1.318a.435.435,0,0,0-.031-.162A1.956,1.956,0,0,0,421.879,0Z" transform="translate(-408.666 0)" fill="#12161f"/>
  <path id="Path_23420" data-name="Path 23420" d="M421.879,241a1.7,1.7,0,0,0-.879.29V247.4a2.439,2.439,0,0,1,.879-.215,1.059,1.059,0,0,1,.94.605.445.445,0,0,0,.493.263.438.438,0,0,0,.354-.429V242.1C422.781,241.13,422.307,241,421.879,241Z" transform="translate(-408.666 -233.939)" fill="#12161f"/>
  <path id="Path_23421" data-name="Path 23421" d="M331,298.2a.879.879,0,0,0,1.758,0v-5.547a1.7,1.7,0,0,1-1.758,0Z" transform="translate(-321.303 -284.082)" fill="#c2a466"/>
  <path id="Path_23422" data-name="Path 23422" d="M121,57.2a.879.879,0,0,0,1.758,0V51.656a1.7,1.7,0,0,1-1.758,0Z" transform="translate(-117.455 -50.143)" fill="#c2a466"/>
  <path id="Path_23423" data-name="Path 23423" d="M331,57.2a.879.879,0,0,0,1.758,0V51.656a1.7,1.7,0,0,1-1.758,0Z" transform="translate(-321.303 -50.143)" fill="#c2a466"/>
</svg>
