<svg xmlns="http://www.w3.org/2000/svg" xmlns:xlink="http://www.w3.org/1999/xlink" width="15.997266666551809" height="15.999998807907104" viewBox="504 424.5 15.997266666551809 15.999998807907104"><path d="M 15.77970790863037 13.83302402496338 L 12.66438770294189 10.7177038192749 C 12.52377700805664 10.57709121704102 12.33316993713379 10.49897384643555 12.1331901550293 10.49897384643555 L 11.62386417388916 10.49897384643555 C 12.48627948760986 9.395957946777344 12.99873065948486 8.00859260559082 12.99873065948486 6.499365329742432 C 12.99873065948486 2.909090995788574 10.08964061737061 0 6.499365329742432 0 C 2.909090518951416 0 0 2.909090995788574 0 6.499365329742432 C 0 10.08964061737061 2.909090995788574 12.99873065948486 6.499365329742432 12.99873065948486 C 8.00859260559082 12.99873065948486 9.395957946777344 12.48627948760986 10.49897384643555 11.62386417388916 L 10.49897384643555 12.1331901550293 C 10.49897384643555 12.33316993713379 10.57709121704102 12.52377700805664 10.7177038192749 12.66438770294189 L 13.83302402496338 15.77970790863037 C 14.12674522399902 16.07342910766602 14.60169887542725 16.07342910766602 14.89229583740234 15.77970790863037 L 15.77658367156982 14.89541912078857 C 16.07030487060547 14.60169792175293 16.07030487060547 14.12674522399902 15.77970790863037 13.83302307128906 Z M 6.499365329742432 10.49897384643555 C 4.290205478668213 10.49897384643555 2.499755859375 8.711648941040039 2.499755859375 6.499365329742432 C 2.499755859375 4.290205478668213 4.287081718444824 2.499755859375 6.499365329742432 2.499755859375 C 8.708524703979492 2.499755859375 10.49897384643555 4.287081718444824 10.49897384643555 6.499365329742432 C 10.49897384643555 8.708524703979492 8.711648941040039 10.49897384643555 6.499365329742432 10.49897384643555 Z" transform="matrix(1,0,0,1,504,424.5)" fill="#283540" fill-rule="evenodd"/></svg>