<svg xmlns="http://www.w3.org/2000/svg" width="16" height="15.504" viewBox="0 0 16 15.504">
  <path id="Path_23412" data-name="Path 23412" d="M25.505,8.658l1.146-1.11L28.4,9.241l-1.146,1.114a6.219,6.219,0,0,1,1,2.323h1.617v2.4H28.252a6.481,6.481,0,0,1-.215.787,3.035,3.035,0,0,1-1-.457l-.244-.169-.24.169a3.055,3.055,0,0,1-1.3.516,3.773,3.773,0,0,0,.605-2.047,4,4,0,1,0-4,3.874,4.057,4.057,0,0,0,1.67-.354v2.189a1.874,1.874,0,0,0,.037.37c-.154.039-.309.075-.467.1v1.571H20.634V20.056a6.57,6.57,0,0,1-2.4-.961l-1.15,1.11-1.747-1.7,1.146-1.11a6.157,6.157,0,0,1-1-2.323H13.869v-2.4H15.49a6.155,6.155,0,0,1,1-2.323L15.34,9.241l1.747-1.693,1.15,1.11a6.573,6.573,0,0,1,2.4-.965V6.123h2.474V7.694A6.573,6.573,0,0,1,25.505,8.658Z" transform="translate(-13.869 -6.123)" fill="#12161f" fill-rule="evenodd"/>
</svg>
