<svg xmlns="http://www.w3.org/2000/svg" width="15" height="15" viewBox="0 0 15 15">
  <g id="Group_23858" data-name="Group 23858" transform="translate(-9.25 -9.25)">
    <circle id="Ellipse_2864" data-name="Ellipse 2864" cx="0.636" cy="0.636" r="0.636" transform="translate(17.131 20.182)" fill="#12161f"/>
    <path id="Path_23511" data-name="Path 23511" d="M26.75,9.722v3.319h2.845Z" transform="translate(-8.602 -0.232)" fill="#12161f"/>
    <path id="Path_23512" data-name="Path 23512" d="M17.386,13.191V9.25H10.648a1.4,1.4,0,0,0-1.4,1.4v12.2a1.4,1.4,0,0,0,1.4,1.4H19.8a1.4,1.4,0,0,0,1.4-1.4v-9.28H17.767A.381.381,0,0,1,17.386,13.191Zm-5.72-1.4h4.068a.381.381,0,0,1,0,.763H11.665a.381.381,0,0,1,0-.763Zm0,1.525h4.068a.381.381,0,0,1,0,.763H11.665a.381.381,0,0,1,0-.763Zm0,8.39a.381.381,0,1,1,.381-.381A.381.381,0,0,1,11.665,21.708Zm1.525,0a.381.381,0,1,1,.381-.381A.381.381,0,0,1,13.191,21.708Zm1.525,0a.381.381,0,1,1,.381-.381A.381.381,0,0,1,14.716,21.708Zm1.017-4.576H11.665a.381.381,0,0,1,0-.763h4.068a.381.381,0,0,1,0,.763Zm2.034,5.085a1.4,1.4,0,1,1,1.4-1.4A1.4,1.4,0,0,1,17.767,22.216Zm1.017-5.085H17.258a.381.381,0,0,1,0-.763h1.525a.381.381,0,0,1,0,.763Zm.381-1.907a.381.381,0,0,1-.381.381H11.665a.381.381,0,0,1,0-.763h7.119A.381.381,0,0,1,19.165,15.225Z" fill="#12161f"/>
    <path id="Path_23513" data-name="Path 23513" d="M34.25,23.833a3.981,3.981,0,0,1,2.288-.006V16.75H34.25Z" transform="translate(-12.288 -3.686)" fill="#c2a466"/>
    <path id="Path_23514" data-name="Path 23514" d="M35.648,11.25H35.14a.891.891,0,0,0-.89.89v1.144h2.288V12.14A.891.891,0,0,0,35.648,11.25Z" transform="translate(-12.288 -0.983)" fill="#c2a466"/>
    <path id="Path_23515" data-name="Path 23515" d="M34.292,32.031c0,.005,0,.011,0,.017l.763,2.034a.384.384,0,0,0,.714,0l.763-2.034c0-.008,0-.016,0-.024A3.223,3.223,0,0,0,34.292,32.031Z" transform="translate(-12.309 -11.096)" fill="#c2a466"/>
  </g>
</svg>
