<svg id="Group_23792" data-name="Group 23792" xmlns="http://www.w3.org/2000/svg" width="14" height="14" viewBox="0 0 14 14">
  <path id="Path_23358" data-name="Path 23358" d="M101.7,2.037h4.248l.705-1.446a.41.41,0,0,0-.509-.565L104.82.508l-.792-.453a.41.41,0,0,0-.407,0l-.792.453L101.5.026a.41.41,0,0,0-.509.565Z" transform="translate(-98.473 0)" fill="#12161f"/>
  <path id="Path_23359" data-name="Path 23359" d="M91.615,105.73h5.059a.615.615,0,0,0,0-1.23H91.615a.615.615,0,0,0,0,1.23Z" transform="translate(-88.794 -101.643)" fill="#12161f"/>
  <path id="Path_23360" data-name="Path 23360" d="M179.728,259.887a.464.464,0,0,0,.118.45,1.622,1.622,0,0,0,.149.1v-.971A.65.65,0,0,0,179.728,259.887Z" transform="translate(-175.081 -252.373)" fill="#12161f"/>
  <path id="Path_23361" data-name="Path 23361" d="M219.915,340.619v1.443a.905.905,0,0,0,.464-.647A.7.7,0,0,0,219.915,340.619Z" transform="translate(-214.175 -331.305)" fill="#12161f"/>
  <path id="Path_23362" data-name="Path 23362" d="M391,347h1.491v.957H391Z" transform="translate(-380.486 -337.511)" fill="#c2a466"/>
  <path id="Path_23363" data-name="Path 23363" d="M321,347h1.5v.957H321Z" transform="translate(-312.481 -337.512)" fill="#c2a466"/>
  <path id="Path_23364" data-name="Path 23364" d="M461,347h1.487v.957H461Z" transform="translate(-448.487 -337.512)" fill="#c2a466"/>
  <path id="Path_23365" data-name="Path 23365" d="M391,412h1.491v.957H391Z" transform="translate(-380.486 -400.734)" fill="#c2a466"/>
  <path id="Path_23366" data-name="Path 23366" d="M321,412h1.5v.957H321Z" transform="translate(-312.481 -400.734)" fill="#c2a466"/>
  <path id="Path_23367" data-name="Path 23367" d="M391,477h1.491v.957H391Z" transform="translate(-380.486 -463.957)" fill="#c2a466"/>
  <path id="Path_23368" data-name="Path 23368" d="M461,414.734h.93c.308,0,.558-.184.558-.41V412H461Z" transform="translate(-448.487 -400.734)" fill="#c2a466"/>
  <path id="Path_23369" data-name="Path 23369" d="M321,477.547c0,.227.251.41.561.41h.935V477H321Z" transform="translate(-312.481 -463.957)" fill="#c2a466"/>
  <path id="Path_23370" data-name="Path 23370" d="M20.541,175.394a7.065,7.065,0,0,0-1.046-1.31,1.426,1.426,0,0,1-.634.148H13.8a1.427,1.427,0,0,1-.634-.148,7.2,7.2,0,0,0-1.272,1.7,7.072,7.072,0,0,0-.9,3.3,3.791,3.791,0,0,0,1.618,3.271,6.523,6.523,0,0,0,3.714.968,8.04,8.04,0,0,0,2.324-.315v-6.385a1.232,1.232,0,0,1,1.23-1.23Zm-2.556,4.176a1.737,1.737,0,0,1-.535.987,1.657,1.657,0,0,1-.738.394v.323a.41.41,0,1,1-.82,0v-.285a2.061,2.061,0,0,1-1.051-.389.41.41,0,0,1,.449-.686,1.314,1.314,0,0,0,.6.251v-1.849a3.174,3.174,0,0,1-.655-.382,1.266,1.266,0,0,1-.418-1.247,1.428,1.428,0,0,1,.979-1.12l.094-.026v-.283a.41.41,0,1,1,.82,0v.237a1.476,1.476,0,0,1,.86.438.41.41,0,0,1-.616.541.625.625,0,0,0-.243-.138v1.43l.24.087a1.509,1.509,0,0,1,1.033,1.718Z" transform="translate(-11 -169.324)" fill="#12161f"/>
  <path id="Path_23371" data-name="Path 23371" d="M326,252h-4.549a.434.434,0,0,0-.455.41v1.367h5.459V252.41A.434.434,0,0,0,326,252Z" transform="translate(-312.459 -245.109)" fill="#c2a466"/>
</svg>
