<svg xmlns="http://www.w3.org/2000/svg" width="17.029" height="16.998" viewBox="0 0 17.029 16.998">
  <g id="Group_23773" data-name="Group 23773" transform="translate(-3.535 -3.577)">
    <path id="Path_23245" data-name="Path 23245" d="M16.379,37.75a.278.278,0,1,0,0-.556H8.923a.278.278,0,1,0,0,.556Z" transform="translate(-3.216 -21.153)" fill="#12161f"/>
    <path id="Path_23246" data-name="Path 23246" d="M16.723,41.794a.278.278,0,0,0-.278-.278H9.189a.278.278,0,1,0,0,.556h7.257A.278.278,0,0,0,16.723,41.794Z" transform="translate(-3.383 -23.873)" fill="#12161f"/>
    <path id="Path_23247" data-name="Path 23247" d="M11.724,17.768a.536.536,0,1,0-.534.538A.537.537,0,0,0,11.724,17.768Z" transform="translate(-4.478 -8.591)" fill="#12161f"/>
    <path id="Path_23248" data-name="Path 23248" d="M26.719,17.768a.536.536,0,1,0-.534.538A.537.537,0,0,0,26.719,17.768Z" transform="translate(-13.914 -8.591)" fill="#12161f"/>
    <path id="Path_23249" data-name="Path 23249" d="M20.152,20.923a.536.536,0,1,0-.534.538A.537.537,0,0,0,20.152,20.923Z" transform="translate(-9.782 -10.576)" fill="#12161f"/>
    <path id="Path_23250" data-name="Path 23250" d="M6.968,15.011v.845H7.8V13.035a.162.162,0,0,0-.089-.141l-.868-.4a.713.713,0,0,1-.411-.645V10.232a1.09,1.09,0,1,1,.556,0v1.617a.155.155,0,0,0,.089.141l.864.4a.706.706,0,0,1,.415.645v2.821h2.377V13.1l-.782-.363a.687.687,0,0,1-.4-.623l0-.712a1.09,1.09,0,1,1,.556,0l0,.716a.131.131,0,0,0,.074.115l.73.337a.689.689,0,0,1,.234-.178l.86-.4a.165.165,0,0,0,.093-.141V10.254a1.091,1.091,0,1,1,.556-.059v1.654a.714.714,0,0,1-.415.645l-.864.4a.155.155,0,0,0-.089.141v2.821h.615v-.845a.273.273,0,0,1,.152-.248A5.9,5.9,0,0,0,9.693,3.58c-.085,0-.174,0-.26,0A5.9,5.9,0,0,0,6.812,14.763a.27.27,0,0,1,.156.248Z" fill="#12161f"/>
    <path id="Path_23251" data-name="Path 23251" d="M17.73,44.232v-.716H12.795v.716a.142.142,0,0,0,.145.145h4.646a.142.142,0,0,0,.145-.145Z" transform="translate(-5.827 -25.132)" fill="#12161f"/>
    <path id="Path_23252" data-name="Path 23252" d="M12.795,39.2H17.73v.675H12.795Z" transform="translate(-5.827 -22.414)" fill="#12161f"/>
    <path id="Path_23253" data-name="Path 23253" d="M42.578,36.431v.561a.278.278,0,1,1-.556,0v-.561a.63.63,0,1,0,.556,0Z" transform="translate(-23.996 -20.673)" fill="#c2a466"/>
    <path id="Path_23254" data-name="Path 23254" d="M28.294,28.385V26.111a.278.278,0,1,0-.556,0v2.274H25.662V26.111a.278.278,0,1,0-.556,0v2.274h-.725l.01,1.882a2.262,2.262,0,0,0,2.049,2.249v.732a.752.752,0,0,1-.749.753H18.684l.079-.195H16.8l.3.747a.042.042,0,0,0,.039.027h1.28a.041.041,0,0,0,.033-.023h7.237A1.309,1.309,0,0,0,27,33.248V32.5a2.261,2.261,0,0,0,1.915-2.23V28.385Zm-1.642,3.123a1.185,1.185,0,1,1,1.187-1.183A1.186,1.186,0,0,1,26.652,31.508Z" transform="translate(-8.348 -14.004)" fill="#c2a466"/>
  </g>
</svg>
