<svg xmlns="http://www.w3.org/2000/svg" width="19.452" height="17" viewBox="0 0 19.452 17">
  <g id="Group_23817" data-name="Group 23817" transform="translate(-2.25 -5.983)">
    <path id="Path_23224" data-name="Path 23224" d="M43.386,23.428a.246.246,0,0,0-.245.245v2.242a1.59,1.59,0,0,0,3.181,0V23.674a.246.246,0,0,0-.245-.245h-2.69Z" transform="translate(-27.529 -11.749)" fill="#c2a466"/>
    <path id="Path_23225" data-name="Path 23225" d="M11.386,23.428a.246.246,0,0,0-.245.245v2.242a1.59,1.59,0,0,0,3.181,0V23.674a.246.246,0,0,0-.245-.245Z" transform="translate(-5.981 -11.749)" fill="#c2a466"/>
    <path id="Path_23226" data-name="Path 23226" d="M18.68,8.192a.409.409,0,0,1,.408-.409h5.465a.409.409,0,0,1,.408.409V8.8h1.8V8.192a2.209,2.209,0,0,0-2.2-2.209H19.088a2.209,2.209,0,0,0-2.2,2.209V8.8h1.8Z" transform="translate(-9.845)" fill="#c2a466"/>
    <path id="Path_23227" data-name="Path 23227" d="M23.084,17.646a1.555,1.555,0,0,0-1.553-1.555H7.8A1.555,1.555,0,0,0,6.25,17.646V18H23.084Z" transform="translate(-2.691 -6.807)" fill="#12161f"/>
    <path id="Path_23228" data-name="Path 23228" d="M27.923,45.482H23.484a.843.843,0,1,0,0,1.687h4.439a.843.843,0,1,0,0-1.687Z" transform="translate(-13.728 -26.602)" fill="#12161f"/>
    <path id="Path_23229" data-name="Path 23229" d="M4.766,26.544a2.072,2.072,0,0,1-.1-.628V23.428H3.15a.9.9,0,0,0-.9.9v1.316a.9.9,0,0,0,.9.9Z" transform="translate(0 -11.748)" fill="#12161f"/>
    <path id="Path_23230" data-name="Path 23230" d="M20.589,34.426a2.072,2.072,0,0,1-3.5,0h-6.96a2.072,2.072,0,0,1-3.5,0s-1.916-.008-1.951-.011l1.29,6.474A1.557,1.557,0,0,0,7.49,42.14H19.728a1.557,1.557,0,0,0,1.523-1.25l1.29-6.474C22.505,34.418,20.589,34.426,20.589,34.426Zm-4.763,5.789H11.392a1.334,1.334,0,0,1,0-2.669h4.434a1.334,1.334,0,0,1,0,2.669Z" transform="translate(-1.633 -19.157)" fill="#12161f"/>
    <path id="Path_23231" data-name="Path 23231" d="M22.159,23.428v2.488a2.072,2.072,0,0,1-.1.628h6.5a2.072,2.072,0,0,1-.1-.628V23.428Z" transform="translate(-13.339 -11.748)" fill="#12161f"/>
    <path id="Path_23232" data-name="Path 23232" d="M55.678,23.428H54.159v2.488a2.072,2.072,0,0,1-.1.628h1.616a.9.9,0,0,0,.9-.9V24.328A.9.9,0,0,0,55.678,23.428Z" transform="translate(-34.876 -11.748)" fill="#12161f"/>
  </g>
</svg>
