<svg xmlns="http://www.w3.org/2000/svg" width="12.823" height="14" viewBox="0 0 12.823 14">
  <g id="Favorite" transform="translate(-995.477 -49)">
    <path id="Path_23501" data-name="Path 23501" d="M3.179,11.2a2.607,2.607,0,0,0,1.3,2.252l3.811,2.2a2.607,2.607,0,0,0,2.6,0l3.811-2.2A2.607,2.607,0,0,0,16,11.2V6.8A2.607,2.607,0,0,0,14.7,4.55l-3.811-2.2a2.608,2.608,0,0,0-2.6,0L4.479,4.55A2.607,2.607,0,0,0,3.179,6.8v4.4Zm1-4.4a1.6,1.6,0,0,1,.8-1.385l3.811-2.2a1.6,1.6,0,0,1,1.6,0l3.811,2.2A1.6,1.6,0,0,1,15,6.8v4.4a1.6,1.6,0,0,1-.8,1.385l-3.811,2.2a1.6,1.6,0,0,1-1.6,0l-3.811-2.2a1.6,1.6,0,0,1-.8-1.385Z" transform="translate(992.298 46.998)" fill="#999"/>
    <g id="Icon_awesome-heart" data-name="Icon awesome-heart" transform="translate(998.278 50.933)" fill="#fff">
      <path d="M 3.609890937805176 8.042259216308594 L 0.9199228286743164 5.264708995819092 C 0.6336228251457214 4.968719005584717 0.4808228313922882 4.557709217071533 0.5009128451347351 4.137248992919922 C 0.521142840385437 3.713829040527344 0.7072728276252747 3.331299066543579 1.025002837181091 3.06010890007019 C 1.264752864837646 2.855788946151733 1.561712861061096 2.747668981552124 1.883472800254822 2.747668981552124 C 2.286182880401611 2.747668981552124 2.683412790298462 2.919559001922607 2.973302841186523 3.219269037246704 L 3.251782894134521 3.506218910217285 L 3.610592842102051 3.875958919525146 L 3.96940279006958 3.506218910217285 L 4.247303009033203 3.219858884811401 C 4.538222789764404 2.919688940048218 4.935742855072021 2.747668981552124 5.338182926177979 2.747668981552124 C 5.659632682800293 2.747668981552124 5.956432819366455 2.855788946151733 6.196472644805908 3.060359001159668 C 6.513992786407471 3.331358909606934 6.70006275177002 3.713908910751343 6.720102787017822 4.137279033660889 C 6.740002632141113 4.557629108428955 6.586863040924072 4.96851921081543 6.299952983856201 5.264598846435547 L 3.609890937805176 8.042259216308594 Z" stroke="none"/>
      <path d="M 1.883472919464111 3.247669219970703 C 1.74310302734375 3.247669219970703 1.536442756652832 3.281198978424072 1.349592685699463 3.44041919708252 C 1.13795280456543 3.621058940887451 1.013922691345215 3.87700891494751 1.000342845916748 4.161118984222412 C 0.9868130683898926 4.444279193878174 1.088562965393066 4.719889163970947 1.279092788696289 4.916859149932861 L 3.609889268875122 7.323545932769775 L 5.940882682800293 4.916648864746094 C 6.132082939147949 4.719338893890381 6.234052658081055 4.443889141082764 6.220663070678711 4.160919189453125 C 6.207212924957275 3.876948833465576 6.083252906799316 3.621078968048096 5.872172832489014 3.440918922424316 C 5.68474292755127 3.281198978424072 5.478332996368408 3.247669219970703 5.338172912597656 3.247669219970703 C 5.070282936096191 3.247669219970703 4.803632736206055 3.364278793334961 4.606122970581055 3.568078994750977 L 3.610592842102051 4.593908786773682 L 2.613913059234619 3.566888809204102 C 2.4176926612854 3.36401891708374 2.151453018188477 3.247669219970703 1.883472919464111 3.247669219970703 M 1.88347053527832 2.247665405273438 C 2.409352779388428 2.247665405273438 2.939415454864502 2.465048789978027 3.332692861557007 2.871648788452148 L 3.610592842102051 3.158009052276611 L 3.888492822647095 2.871648788452148 C 4.598052501678467 2.139509201049805 5.747732639312744 2.021017074584961 6.520782947540283 2.67979907989502 C 7.406672954559326 3.435908794403076 7.453222751617432 4.792959213256836 6.659022808074951 5.612548828125 L 3.929402828216553 8.431049346923828 C 3.753072738647461 8.613018989562988 3.466702938079834 8.613018989562988 3.290372848510742 8.431049346923828 L 0.5607528686523438 5.612548828125 C -0.2320370674133301 4.792959213256836 -0.1854872703552246 3.435908794403076 0.7004027366638184 2.67979907989502 C 1.04412841796875 2.38687801361084 1.462429523468018 2.247665405273438 1.88347053527832 2.247665405273438 Z" stroke="none" fill="#999"/>
    </g>
  </g>
</svg>
