<svg id="_61" xmlns="http://www.w3.org/2000/svg" width="15" height="15" viewBox="0 0 15 15">
  <path id="Path_23509" data-name="Path 23509" d="M12.262,336.283l-.5,1.547H5.182l-.5-1.547a.992.992,0,0,0-.944-.684H1.991a.991.991,0,0,0-.991.989v3.187a.991.991,0,0,0,.991.989H15.009a.991.991,0,0,0,.991-.989v-3.187a.991.991,0,0,0-.991-.989h-1.8A.989.989,0,0,0,12.262,336.283Z" transform="translate(-1 -325.764)" fill="#12161f"/>
  <path id="Path_23510" data-name="Path 23510" d="M136.532,9.81a1.1,1.1,0,0,0,1.1-1.1V4.19l.584.584a1.1,1.1,0,0,0,1.555-1.555L137.324.771a1.163,1.163,0,0,0-1.605,0l-2.447,2.447a1.1,1.1,0,1,0,1.555,1.555l.607-.607V8.709A1.1,1.1,0,0,0,136.532,9.81Z" transform="translate(-129.061 -0.45)" fill="#c2a466"/>
</svg>
