<svg xmlns="http://www.w3.org/2000/svg" width="16" height="16" viewBox="0 0 16 16">
  <g id="_x35_11-Interior_x2C__Window_x2C__Home" transform="translate(-45.39 -55)">
    <g id="Group_23827" data-name="Group 23827" transform="translate(45 55)">
      <path id="Path_23450" data-name="Path 23450" d="M268.9,95.276l-2.008,2.008a.2.2,0,0,1-.276-.276L268.627,95H265v5.463h3.9Zm-1.228,2.789L266.5,99.236a.2.2,0,1,1-.276-.276l1.171-1.171a.2.2,0,0,1,.276.276Z" transform="translate(-256.415 -93.439)" fill="#12161f"/>
      <path id="Path_23451" data-name="Path 23451" d="M158.627,245H155v5.464h3.9v-5.188l-2.008,2.008a.2.2,0,1,1-.276-.276Zm-1.228,2.789a.2.2,0,0,1,.276.276l-1.171,1.171a.2.2,0,0,1-.276-.276Z" transform="translate(-150.707 -237.585)" fill="#12161f"/>
      <path id="Path_23452" data-name="Path 23452" d="M55,395.39a.781.781,0,0,0,.78.781H66.9a.2.2,0,0,1,0,.39H56.561v.429a.742.742,0,0,0,.741.741H68.7a.742.742,0,0,0,.741-.741v-.624a.2.2,0,0,1,.2-.2h.585A.781.781,0,0,0,71,395.39V395H55Zm13.073.585a.39.39,0,1,1-.39.39A.39.39,0,0,1,68.073,395.976Z" transform="translate(-54.61 -381.732)" fill="#c2a466"/>
      <path id="Path_23453" data-name="Path 23453" d="M155,95h3.9v5.463H155Z" transform="translate(-150.707 -93.439)" fill="#12161f"/>
      <path id="Path_23454" data-name="Path 23454" d="M445.585,155a.585.585,0,1,0,.585.585A.586.586,0,0,0,445.585,155Z" transform="translate(-429.78 -151.098)" fill="#12161f"/>
      <path id="Path_23455" data-name="Path 23455" d="M64.6,87.174a.585.585,0,1,0-.585-.585A.586.586,0,0,0,64.6,87.174Z" transform="translate(-63.277 -84.793)" fill="#12161f"/>
      <path id="Path_23456" data-name="Path 23456" d="M265,245h3.9v5.464H265Z" transform="translate(-256.415 -237.585)" fill="#12161f"/>
      <path id="Path_23457" data-name="Path 23457" d="M45.781,325.39a.39.39,0,1,0-.39.39A.391.391,0,0,0,45.781,325.39Z" transform="translate(-44.61 -314.463)" fill="#12161f"/>
      <path id="Path_23458" data-name="Path 23458" d="M418.87,325.78a.39.39,0,1,0-.39-.39A.391.391,0,0,0,418.87,325.78Z" transform="translate(-403.905 -314.463)" fill="#12161f"/>
      <path id="Path_23459" data-name="Path 23459" d="M116.171,56.366a.2.2,0,0,1,.2-.2h8.587a.2.2,0,0,1,.036,0l.017.005.019.006.019.01.015.008a.2.2,0,0,1,.054.054s.005.01.008.015a.177.177,0,0,1,.01.019.188.188,0,0,1,.006.02c0,.006,0,.011,0,.017a.2.2,0,0,1,0,.038V67.878h1.171V55H115V67.878h1.171Z" transform="translate(-112.268 -55)" fill="#12161f"/>
    </g>
  </g>
</svg>
